<svg width="96" height="96" viewBox="0 0 96 96" fill="none" xmlns="http://www.w3.org/2000/svg">
<path fill-rule="evenodd" clip-rule="evenodd" d="M60.3437 47.0345L60.3524 47.0436L60.3618 47.052C60.488 47.1655 60.6437 47.1997 60.7816 47.1997H61.3831C61.521 47.1997 61.6767 47.1655 61.8029 47.052C61.9234 46.9437 61.994 46.7967 61.994 46.6285V43.9121H65.3963V46.6285C65.3963 46.78 65.45 46.9218 65.5574 47.0345L65.5747 47.0526L65.5945 47.0679C65.7143 47.1602 65.8541 47.1997 65.9953 47.1997H66.5968C66.7347 47.1997 66.8904 47.1655 67.0166 47.052C67.1371 46.9437 67.2076 46.7967 67.2076 46.6285V39.7034C67.2076 39.5457 67.1492 39.3912 67.017 39.2797C66.8951 39.1628 66.7409 39.1217 66.5968 39.1217H65.9953C65.8411 39.1217 65.6946 39.1728 65.5755 39.28C65.444 39.3982 65.3963 39.5556 65.3963 39.7034V42.3032H61.994V39.7034C61.994 39.5457 61.9355 39.3912 61.8033 39.2797C61.6814 39.1628 61.5272 39.1217 61.3831 39.1217H60.7816C60.634 39.1217 60.4757 39.1649 60.3524 39.2886C60.228 39.4058 60.1826 39.5592 60.1826 39.7034V46.6285C60.1826 46.78 60.2363 46.9218 60.3437 47.0345ZM65.7239 43.5849H61.6662V46.6285C61.6662 46.6992 61.6387 46.7593 61.5837 46.8088C61.5365 46.8512 61.4696 46.8725 61.3831 46.8725H60.7816C60.6951 46.8725 60.6282 46.8512 60.581 46.8088C60.546 46.772 60.5239 46.7294 60.5149 46.6808C60.524 46.7291 60.546 46.7716 60.5809 46.8082C60.6281 46.8507 60.695 46.8719 60.7815 46.8719H61.383C61.4695 46.8719 61.5364 46.8507 61.5836 46.8082C61.6386 46.7588 61.6661 46.6987 61.6661 46.628V43.5843H65.7239V43.5849ZM65.7286 46.6808C65.7376 46.7294 65.7596 46.772 65.7947 46.8088C65.8498 46.8512 65.9166 46.8725 65.9953 46.8725H66.5968C66.6833 46.8725 66.7502 46.8512 66.7974 46.8088C66.8524 46.7593 66.8799 46.6992 66.8799 46.6285V39.7034C66.8799 39.6845 66.8783 39.6666 66.875 39.6498C66.8782 39.6664 66.8798 39.6841 66.8798 39.7029V46.628C66.8798 46.6987 66.8523 46.7588 66.7973 46.8082C66.7501 46.8507 66.6832 46.8719 66.5967 46.8719H65.9952C65.9165 46.8719 65.8497 46.8507 65.7946 46.8082C65.7597 46.7716 65.7377 46.7291 65.7286 46.6808ZM61.6615 39.6508C61.6646 39.6671 61.6661 39.6845 61.6661 39.7029V42.6299H61.6662V39.7034C61.6662 39.6849 61.6647 39.6673 61.6615 39.6508ZM68.5276 46.1824C68.8214 46.5292 69.2274 46.8001 69.7263 47.0053L69.7303 47.007C70.2441 47.2105 70.8621 47.3057 71.5733 47.3057C72.2369 47.3057 72.8258 47.2212 73.3333 47.0434L73.3358 47.0425C73.8495 46.8577 74.2688 46.5882 74.5735 46.2229L74.5758 46.2201C74.8871 45.8385 75.0387 45.3819 75.0387 44.8681C75.0387 44.4135 74.9276 44.0105 74.6789 43.6862C74.4453 43.3646 74.0962 43.1188 73.6615 42.9346C73.2379 42.7481 72.7045 42.577 72.0668 42.4193C71.5542 42.2866 71.146 42.1627 70.8387 42.0481C70.5404 41.937 70.3569 41.8216 70.2553 41.7172C70.1681 41.621 70.1199 41.5015 70.1199 41.3366C70.1199 41.0749 70.2178 40.9114 70.4233 40.7954C70.682 40.654 71.0389 40.5715 71.5144 40.5715C71.977 40.5715 72.3196 40.6628 72.5664 40.8181C72.824 40.9802 72.9319 41.1516 72.9602 41.3255L72.9661 41.3616L72.9798 41.3955C73.0302 41.52 73.1171 41.6478 73.2635 41.7231L73.2711 41.727L73.2789 41.7305C73.3738 41.7731 73.4788 41.8017 73.5904 41.8017H74.2156C74.3482 41.8017 74.5183 41.7696 74.6448 41.6331L74.6533 41.624L74.661 41.6142C74.7334 41.5231 74.7912 41.4041 74.7912 41.2624L74.7908 41.2503C74.7806 40.9767 74.6947 40.7105 74.5482 40.4547C74.3979 40.1851 74.1827 39.9458 73.9128 39.734C73.631 39.5057 73.2863 39.3337 72.888 39.2114C72.486 39.0784 72.0262 39.0156 71.5144 39.0156C70.871 39.0156 70.3035 39.1081 69.8214 39.3051L69.8194 39.3059C69.3527 39.5002 68.9751 39.7725 68.7053 40.1315C68.4332 40.4864 68.2967 40.8956 68.2967 41.3472C68.2967 41.7988 68.3983 42.2008 68.626 42.5301L68.6298 42.5354C68.8593 42.8535 69.1922 43.1042 69.6059 43.2979C70.0075 43.486 70.5045 43.6548 71.0906 43.8064C71.6365 43.9466 72.0752 44.0748 72.4093 44.1909C72.7353 44.3042 72.9415 44.4234 73.0586 44.5337L73.0701 44.5436C73.1639 44.6241 73.2155 44.7279 73.2155 44.8893C73.2155 45.1315 73.1166 45.3241 72.8757 45.488C72.6432 45.6446 72.2285 45.7498 71.5733 45.7498C71.1587 45.7498 70.8411 45.6998 70.608 45.6134C70.3682 45.5143 70.1971 45.4013 70.0803 45.2824C69.9598 45.1441 69.8995 45.0236 69.8758 44.9215L69.872 44.9078C69.8383 44.7864 69.7708 44.6843 69.6812 44.6037C69.5503 44.486 69.3865 44.456 69.2496 44.456H68.648C68.4922 44.456 68.3522 44.5135 68.24 44.6143C68.1331 44.7104 68.0604 44.8449 68.0604 45.006L68.0611 45.0211C68.0805 45.4394 68.2414 45.8258 68.5219 46.1756L68.5276 46.1824ZM74.6777 44.4868C74.6998 44.6053 74.7109 44.7323 74.7109 44.8675C74.7109 45.3129 74.5811 45.6947 74.3216 46.0129C74.0621 46.3239 73.6964 46.5643 73.2246 46.734C72.7607 46.8966 72.2102 46.9779 71.5732 46.9779C70.8891 46.9779 70.315 46.886 69.8511 46.7022C69.3871 46.5113 69.0293 46.2674 68.7776 45.9704C68.5844 45.7295 68.4628 45.4774 68.4129 45.2142C68.4627 45.4776 68.5844 45.7299 68.7778 45.971C69.0294 46.268 69.3872 46.5119 69.8512 46.7028C70.3151 46.8866 70.8892 46.9785 71.5733 46.9785C72.2103 46.9785 72.7608 46.8972 73.2247 46.7346C73.6966 46.5649 74.0622 46.3245 74.3217 46.0134C74.5812 45.6953 74.711 45.3135 74.711 44.8681C74.711 44.7326 74.6999 44.6055 74.6777 44.4868ZM69.7922 41.3366C69.7922 41.4032 69.7979 41.4668 69.8094 41.5274C69.7978 41.4666 69.7921 41.4028 69.7921 41.336C69.7921 40.9613 69.9494 40.6856 70.2639 40.5088C70.5863 40.3321 71.0031 40.2437 71.5142 40.2437C72.0175 40.2437 72.4264 40.3427 72.741 40.5407C73.0471 40.7333 73.2265 40.9694 73.2795 41.249C73.2264 40.9696 73.047 40.7337 72.7411 40.5412C72.4266 40.3433 72.0176 40.2443 71.5144 40.2443C71.0032 40.2443 70.5864 40.3327 70.264 40.5094C69.9495 40.6862 69.7922 40.9619 69.7922 41.3366ZM68.6602 41.7581C68.702 41.9821 68.7805 42.1775 68.8957 42.3441C69.0844 42.6057 69.3675 42.8249 69.745 43.0016C70.1225 43.1784 70.5982 43.341 71.1723 43.4894C71.7227 43.6308 72.171 43.7616 72.517 43.8818C72.863 44.002 73.1186 44.1399 73.2837 44.2954C73.4141 44.4073 73.4953 44.5473 73.5274 44.7153C73.4954 44.547 73.4141 44.4068 73.2836 44.2948C73.1185 44.1393 72.8629 44.0014 72.5169 43.8813C72.1709 43.7611 71.7226 43.6303 71.1722 43.4889C70.5981 43.3404 70.1224 43.1778 69.7449 43.001C69.3674 42.8243 69.0843 42.6051 68.8956 42.3435C68.7805 42.177 68.702 41.9819 68.6602 41.7581Z" fill="#1E8DEE"/>
<path d="M26.6641 59.867C26.4709 59.867 26.3067 59.7995 26.1715 59.6645C26.0363 59.5294 25.9687 59.3655 25.9687 59.1726V57.6969C25.9687 57.5233 26.0073 57.3208 26.0846 57.0893C26.1812 56.8385 26.384 56.5878 26.6931 56.337L31.2713 51.7943C32.5462 50.7912 33.57 49.9425 34.3427 49.248C35.1347 48.5343 35.7046 47.8881 36.0523 47.3094C36.4193 46.7114 36.6028 46.1231 36.6028 45.5444C36.6028 44.6764 36.3614 43.9723 35.8784 43.4322C35.4148 42.8921 34.6711 42.622 33.6473 42.622C32.9712 42.622 32.4013 42.7667 31.9377 43.056C31.4741 43.3261 31.1071 43.6926 30.8366 44.1556C30.5855 44.6185 30.4117 45.1297 30.3151 45.6891C30.2764 45.9399 30.1702 46.1135 29.9963 46.2099C29.8225 46.3064 29.6486 46.3546 29.4748 46.3546H26.8959C26.7221 46.3546 26.5772 46.2967 26.4613 46.181C26.3454 46.0652 26.2874 45.9302 26.2874 45.7759C26.3067 44.9464 26.4806 44.1459 26.809 43.3743C27.1374 42.5835 27.6107 41.889 28.2288 41.291C28.8663 40.6738 29.639 40.1819 30.5469 39.8154C31.4548 39.4489 32.4786 39.2656 33.6183 39.2656C35.2216 39.2656 36.5449 39.5357 37.588 40.0758C38.6505 40.6159 39.4425 41.3489 39.964 42.2748C40.5049 43.2007 40.7754 44.2424 40.7754 45.3997C40.7754 46.3064 40.6015 47.1455 40.2538 47.9171C39.9061 48.6694 39.4038 49.4024 38.747 50.1161C38.0903 50.8105 37.2982 51.5242 36.371 52.2572L32.2564 56.4238H40.5146C40.7271 56.4238 40.8913 56.4913 41.0072 56.6264C41.1424 56.7421 41.21 56.906 41.21 57.1182V59.1726C41.21 59.3655 41.1424 59.5294 41.0072 59.6645C40.8913 59.7995 40.7271 59.867 40.5146 59.867H26.6641Z" fill="#1E8DEE"/>
<path d="M53.8523 59.867C53.6591 59.867 53.4949 59.7995 53.3597 59.6645C53.2245 59.5294 53.1569 59.3655 53.1569 59.1726V55.469H43.9715C43.759 55.469 43.5852 55.4015 43.45 55.2664C43.3341 55.1314 43.2761 54.9674 43.2761 54.7745V52.807C43.2761 52.6913 43.2954 52.5562 43.3341 52.4019C43.392 52.2283 43.4789 52.074 43.5948 51.939L52.1427 40.1047C52.3938 39.7768 52.7512 39.6128 53.2148 39.6128H56.3732C56.5664 39.6128 56.7306 39.6804 56.8658 39.8154C57.001 39.9504 57.0686 40.1144 57.0686 40.3073V52.0547H59.6475C59.8793 52.0547 60.0531 52.1222 60.169 52.2572C60.3042 52.373 60.3719 52.5369 60.3719 52.7491V54.7745C60.3719 54.9674 60.3042 55.1314 60.169 55.2664C60.0338 55.4015 59.8696 55.469 59.6764 55.469H57.0686V59.1726C57.0686 59.3655 57.001 59.5294 56.8658 59.6645C56.7306 59.7995 56.5664 59.867 56.3732 59.867H53.8523ZM47.3037 52.1704H53.2438V43.8083L47.3037 52.1704Z" fill="#1E8DEE"/>
<path d="M17.5692 30.3875C13.6584 37.1516 12.1194 45.0252 13.196 52.7613C14.2726 60.4974 17.9032 67.6537 23.5128 73.0966C29.1223 78.5396 36.3901 81.958 44.165 82.8104C51.9399 83.6628 59.7773 81.9006 66.4359 77.8027C73.0945 73.7048 78.1935 67.5057 80.9254 60.1871C83.6573 52.8686 83.8658 44.849 81.5179 37.3988C79.17 29.9486 74.3999 23.4935 67.9632 19.0562C63.0518 15.6703 57.3843 13.6069 51.505 13.0183" stroke="#1E8DEE" stroke-width="3.5" stroke-miterlimit="16" stroke-linecap="round"/>
<path d="M22.9644 35.9316L19.9601 26.9316L9.9458 29.9316" stroke="#1E8DEE" stroke-width="3.5" stroke-linecap="round" stroke-linejoin="round"/>
</svg>
