<svg width="60" height="65" viewBox="0 0 60 65" fill="none" xmlns="http://www.w3.org/2000/svg">
<g clip-path="url(#clip0_1_2740)">
<path d="M56.6923 42.9769C54.8692 36.8447 49.2088 30.4876 42.5235 30.4876H26.3452C25.8638 28.9444 24.4274 27.8245 22.7362 27.8245C21.0451 27.8245 19.6102 28.9444 19.1273 30.4876H18.4517C13.4731 30.4876 9.42309 27.662 9.42309 22.6544C9.42309 17.6468 13.4731 14.6651 18.4517 14.6651H21.1461C21.615 16.2301 23.0624 17.3704 24.7675 17.3704C26.4726 17.3704 27.9183 16.2301 28.3904 14.6651H39.0341C39.6397 14.6651 40.1304 14.1731 40.1304 13.5623C40.1304 12.9516 39.6397 12.4596 39.0341 12.4596H28.3904C27.9183 10.8977 26.4726 9.75745 24.7675 9.75745C23.0624 9.75745 21.6166 10.8977 21.1476 12.4596H18.4517C12.2634 12.4596 7.22882 16.4316 7.22882 22.6544C7.22882 28.8772 12.2634 32.6931 18.4517 32.6931H19.104C19.5605 34.2769 21.0156 35.4374 22.7362 35.4374C24.4569 35.4374 25.9135 34.2769 26.3701 32.6931H42.5235C48.1233 32.6931 52.8799 38.263 54.512 43.3549C53.2774 43.9828 52.4311 45.2683 52.4311 46.7521C52.4311 48.3313 53.3908 49.687 54.7527 50.2634C53.4001 55.7895 48.8687 59.268 42.963 59.268H36.037C35.5664 57.7061 34.1222 56.5643 32.4156 56.5643C30.7089 56.5643 29.2662 57.7061 28.7942 59.268H17.9144C17.3088 59.268 16.8181 59.7616 16.8181 60.3707C16.8181 60.9799 17.3088 61.4735 17.9144 61.4735H28.7942C29.2631 63.037 30.7105 64.1772 32.4156 64.1772C34.1207 64.1772 35.5664 63.037 36.0385 61.4735H42.963C50.007 61.4735 55.4779 57.1281 56.9532 50.4867C58.6878 50.14 60 48.5983 60 46.7521C60 44.9059 58.5542 43.2128 56.6923 42.9769ZM23.6152 12.4596C23.904 12.1535 24.3156 11.9629 24.7675 11.9629C25.2193 11.9629 25.6293 12.1535 25.9182 12.4596C26.193 12.7454 26.3592 13.1344 26.3592 13.5623C26.3592 13.9903 26.193 14.3792 25.9182 14.6651C25.6293 14.9728 25.2178 15.1633 24.7675 15.1633C24.3171 15.1633 23.904 14.9728 23.6152 14.6651C23.3434 14.3792 23.1773 13.9903 23.1773 13.5623C23.1773 13.1344 23.3434 12.7454 23.6152 12.4596ZM23.9227 32.6931C23.6323 33.0242 23.2068 33.2319 22.7362 33.2319C22.2657 33.2319 21.8387 33.0242 21.5514 32.6931C21.2967 32.4088 21.1461 32.0386 21.1461 31.6294C21.1461 31.1842 21.3277 30.7781 21.6243 30.4876C21.9085 30.2049 22.3014 30.0299 22.7362 30.0299C23.1711 30.0299 23.5655 30.2049 23.8497 30.4876C24.1432 30.7781 24.328 31.1842 24.328 31.6294C24.328 32.0386 24.1742 32.4088 23.9227 32.6931ZM33.5663 61.4735C33.2774 61.7796 32.869 61.9717 32.4156 61.9717C31.9621 61.9717 31.5537 61.7796 31.2664 61.4735C30.9915 61.1861 30.8254 60.7987 30.8254 60.3707C30.8254 59.9428 30.9915 59.5538 31.2664 59.268C31.5537 58.9603 31.9637 58.7713 32.4156 58.7713C32.8675 58.7713 33.2774 58.9603 33.5663 59.268C33.8411 59.5538 34.0073 59.9428 34.0073 60.3707C34.0073 60.7987 33.8411 61.1861 33.5663 61.4735ZM57.2933 47.9251C57.0075 48.1891 56.6302 48.3531 56.214 48.3531C55.7978 48.3531 55.3894 48.1766 55.1021 47.8939C54.8086 47.6049 54.6238 47.1988 54.6238 46.7521C54.6238 46.346 54.776 45.9743 55.0229 45.6931C55.3149 45.3589 55.7404 45.1527 56.214 45.1527C56.5914 45.1527 56.9377 45.2839 57.2094 45.5073C57.5743 45.7978 57.8057 46.2492 57.8057 46.7521C57.8057 47.2145 57.6085 47.6346 57.2933 47.9251Z" fill="#1E8DEE"/>
<path d="M1.66006 42.816C1.63832 42.8488 1.61658 42.8801 1.59639 42.9098C1.61037 42.8879 1.62434 42.8676 1.63832 42.8457C1.64453 42.8348 1.65229 42.8254 1.66006 42.816Z" fill="#1E8DEE"/>
<path d="M9.30352 43.1816C6.71015 43.2159 4.57489 45.4714 4.61061 48.1423C4.64943 51.0522 6.76761 53.1936 9.57528 53.1593C12.355 53.1265 14.5539 50.8898 14.5306 48.1189C14.5073 45.2136 12.3131 43.1409 9.30352 43.1816ZM9.51782 51.6864C7.60618 51.6817 5.97873 49.9651 5.99581 47.9736C6.01134 46.268 7.78788 44.5764 9.55509 44.5873C11.4745 44.5998 13.0538 46.2258 13.0429 48.1798C13.0321 50.1025 11.4357 51.691 9.51782 51.6864Z" fill="#1E8DEE"/>
<path d="M51.0925 3.52841C50.58 1.56661 48.6839 0.00935094 46.7987 -2.07362e-05C44.2752 -0.0125163 42.6198 1.13083 42.0048 3.3113C41.3169 5.7495 42.2843 7.5348 45.3653 9.39977C45.3653 10.918 45.3576 12.4955 45.37 14.0747C45.3762 14.8385 45.5858 15.5179 46.5067 15.5195C47.3965 15.5195 47.6559 14.9665 47.631 14.1184C47.5829 12.5205 47.6171 10.9195 47.6171 9.37634C50.712 7.55198 51.7012 5.85727 51.0925 3.52841ZM46.5222 7.13651C45.0019 7.14588 44.0531 6.16498 44.0516 4.64677C44.0516 3.06608 45.1153 2.36476 46.7397 2.28042C48.0301 2.44755 48.8827 3.2582 48.8532 4.66863C48.8237 6.09625 48.0006 7.12714 46.5222 7.13651Z" fill="#1E8DEE"/>
<path d="M18.8586 45.929C17.2467 39.6062 10.5505 36.7838 4.96622 39.7843C4.94914 39.7921 4.93205 39.8015 4.91653 39.8108C3.34808 40.6027 2.20824 42.0272 1.66627 42.8082C1.66472 42.8113 1.66317 42.8129 1.66006 42.816C1.63832 42.8488 1.61658 42.8801 1.59639 42.9097C1.57465 42.9425 1.55446 42.9738 1.53428 43.0034C1.49545 43.0612 1.46129 43.1143 1.43334 43.1596C1.42091 43.1799 1.40694 43.2018 1.39296 43.2237C1.38364 43.2409 1.37277 43.258 1.3619 43.2752C1.35724 43.283 1.35258 43.2893 1.34793 43.2971C1.34016 43.3112 1.33084 43.3268 1.32153 43.3424C1.31531 43.3533 1.31221 43.358 1.31221 43.358C1.13673 43.6501 0.973672 43.95 0.827698 44.2561C-0.899144 47.8736 0.295048 51.0506 2.37751 54.0417C4.01428 56.3924 5.94611 58.4995 8.00217 60.4894C9.10784 61.5609 10.0551 61.5828 11.1344 60.4972C13.178 58.4448 15.1192 56.3019 16.8041 53.9324C18.5201 51.5239 19.6211 48.9154 18.8586 45.929ZM14.5881 54.1776C13.1144 56.1988 11.4015 58.0169 9.5349 59.6897C7.34839 57.7045 5.47868 55.5224 3.76116 53.2045C1.53428 50.1993 0.773346 47.0723 2.94432 43.672C2.96917 43.6345 2.98936 43.5954 3.00489 43.5548C3.00644 43.5533 3.00644 43.5517 3.00644 43.5501C3.34497 43.0363 3.87762 42.349 4.59818 41.7914C4.59973 41.7898 4.60128 41.7883 4.60439 41.7883L5.66192 41.1557C5.66192 41.1557 5.66814 41.1525 5.67124 41.151L6.13246 40.9058C6.13246 40.9058 6.13712 40.9026 6.14022 40.9011C6.69772 40.6449 7.29093 40.4872 7.91365 40.3622C12.8488 39.3766 17.4299 42.9457 17.4874 47.9579C17.5169 50.4383 15.9531 52.3048 14.5881 54.1776Z" fill="#1E8DEE"/>
</g>
<defs>
<clipPath id="clip0_1_2740">
<rect width="60" height="64.1772" fill="white"/>
</clipPath>
</defs>
</svg>
