<svg width="60" height="52" viewBox="0 0 60 52" fill="none" xmlns="http://www.w3.org/2000/svg">
<g clip-path="url(#clip0_1_2723)">
<path d="M50.9748 23.7976V28.7123H33.0278V23.7976H50.9748ZM48.9345 26.5315V25.9967C48.9345 25.6246 48.6326 25.324 48.2606 25.324H39.7275C39.3538 25.324 39.0519 25.6246 39.0519 25.9967V26.5315C39.0519 26.9035 39.3538 27.2041 39.7275 27.2041H48.2606C48.6326 27.2041 48.9345 26.9035 48.9345 26.5315ZM36.9265 26.269V26.2358C36.9265 25.7226 36.5078 25.3057 35.9906 25.3057C35.4735 25.3057 35.0564 25.7226 35.0564 26.2358V26.269C35.0564 26.5265 35.1615 26.759 35.33 26.9284C35.5002 27.0962 35.7337 27.2008 35.9906 27.2008C36.5078 27.2008 36.9265 26.7839 36.9265 26.269Z" fill="white"/>
<path d="M23.9843 47.6749V48.6084H17.0311C16.976 48.2961 16.926 48.0138 16.8676 47.6749H23.9843Z" fill="white"/>
<path d="M15.9885 33.7199V45.6204H15.0459V33.7199H15.9885Z" fill="white"/>
<path d="M59.9566 13.4817C59.9566 14.1859 59.9633 14.8901 59.955 15.5943C59.9433 16.4148 59.5896 16.7703 58.7788 16.7885C58.6354 16.7919 58.4902 16.7919 58.3301 16.7919C58.1249 16.7902 57.9581 16.9546 57.9581 17.1589V48.9455C57.9581 49.1531 57.9664 49.3607 57.9547 49.5667C57.9147 50.1978 57.561 50.5566 56.9371 50.6031C56.792 50.6131 56.6452 50.6064 56.5 50.6064H29.281C28.3785 50.5948 28.0281 50.2576 28.0231 49.3707C28.0164 48.2114 28.0215 47.0504 28.0215 45.8911C28.0215 42.6174 28.0198 39.3438 28.0215 36.0701C28.0215 35.0486 28.3418 34.7264 29.3577 34.7264C37.1184 34.7248 44.8807 34.7248 52.643 34.7264C53.6256 34.7264 53.961 35.0569 53.961 36.0253C53.9643 39.9616 53.9626 43.898 53.9626 47.8344V48.2413C53.9626 48.4439 54.1278 48.6084 54.3313 48.6084H55.5825C55.786 48.6084 55.9512 48.4439 55.9512 48.2413V20.1834C55.9512 19.9808 55.786 19.8164 55.5825 19.8164H4.39414C4.19061 19.8164 4.02546 19.9808 4.02546 20.1834V36.6647C4.02546 37.2062 3.58504 37.6446 3.04119 37.6446C2.49735 37.6446 2.0586 37.2062 2.0586 36.6647V17.1589C2.0586 16.9546 1.89178 16.7902 1.68658 16.7919C1.50307 16.7935 1.33291 16.7935 1.16275 16.7869C0.450414 16.762 0.0683864 16.4098 0.0550405 15.7189C0.0366898 14.7871 0.0500358 13.8537 0.0500358 12.9219C0.0500358 12.3389 0.383684 12.0383 0.895835 11.829C3.72351 10.678 6.54284 9.51207 9.36383 8.34777C15.905 5.6521 22.4495 2.96142 28.9824 0.245821C29.638 -0.0265686 30.377 -0.0265686 31.0326 0.244161C40.273 4.06925 49.5184 7.87607 58.7638 11.6862C59.9183 12.1629 59.9566 12.2227 59.9566 13.4817ZM57.9664 14.45V13.7192C57.9664 13.578 57.8863 13.4501 57.7579 13.3886C57.6911 13.3571 57.6261 13.3255 57.5594 13.299C48.5775 9.59677 39.5924 5.89958 30.6156 2.18411C30.1702 1.99975 29.8115 2.01968 29.3777 2.19906C20.6095 5.82317 11.8362 9.43566 3.06121 13.0482C1.94516 13.5082 1.94182 13.5032 2.03358 14.6908C2.03524 14.7091 2.05026 14.7273 2.09196 14.817C2.9461 14.812 3.76354 14.8901 4.59933 14.5347C12.7954 11.0534 21.0098 7.61032 29.2109 4.13735C29.7748 3.89817 30.2552 3.90648 30.8124 4.14233C39.0936 7.64354 47.3814 11.1248 55.6609 14.626C56.3098 14.9001 56.9471 14.8187 57.5927 14.8187C57.7979 14.8187 57.9664 14.6559 57.9664 14.45ZM55.9695 17.3964V17.1008C55.9695 16.953 55.8794 16.8184 55.7426 16.762C54.3213 16.1674 52.9133 15.5777 51.4769 14.9765C51.2417 14.8785 50.9798 15.0379 50.9615 15.2904L50.9548 15.4033C50.9414 15.5993 50.7796 15.7488 50.5861 15.7488H49.37C49.1648 15.7488 48.9996 15.5811 49.0013 15.3784C49.0029 14.9981 49.0079 14.6393 48.9913 14.2806C48.9846 14.1361 48.9179 13.9168 48.8144 13.867C48.3874 13.6627 47.9469 13.4817 47.4665 13.284C47.2229 13.1827 46.956 13.3604 46.956 13.6228V15.3851C46.956 15.5877 46.7892 15.7521 46.5857 15.7521H45.3645C45.161 15.7521 44.9958 15.5877 44.9958 15.3851V12.4851C44.9958 12.3373 44.9057 12.2028 44.7673 12.1446C44.3369 11.9652 43.9165 11.7908 43.4727 11.6065C43.2292 11.5052 42.9589 11.6829 42.9589 11.947V15.395C42.9589 15.5977 42.7937 15.7638 42.5902 15.7638H41.3774C41.1739 15.7638 41.0071 15.5977 41.0071 15.395V15.1293C41.0071 13.7607 41.0154 12.3938 40.9987 11.0268C40.997 10.8441 40.932 10.5618 40.8085 10.5003C40.3865 10.2894 39.9477 10.1133 39.4673 9.92065C39.2254 9.82266 38.9585 10.0004 38.9585 10.2611V15.3834C38.9585 15.5877 38.7933 15.7521 38.5898 15.7521H37.377C37.1718 15.7521 37.0066 15.5877 37.0066 15.3834V9.11677C37.0066 8.96729 36.9165 8.83441 36.7797 8.77628L35.4652 8.23316C35.2216 8.13185 34.9547 8.30956 34.9547 8.57199V15.3801C34.9547 15.5827 34.7878 15.7471 34.5843 15.7471H33.3849C33.1813 15.7471 33.0162 15.5827 33.0162 15.3801V15.0213C33.0162 12.5964 33.0212 10.1731 33.0062 7.74984C33.0045 7.53392 32.9294 7.20173 32.781 7.12367C32.3789 6.90775 31.9502 6.73834 31.4781 6.55066C31.2345 6.45432 30.9709 6.63204 30.9709 6.89114V15.3768C30.9709 15.5794 30.8058 15.7438 30.6022 15.7438H29.3761C29.1725 15.7438 29.0057 15.5794 29.0057 15.3768V6.92104C29.0057 6.65861 28.7355 6.4809 28.4919 6.58387C28.1366 6.73336 27.8012 6.87619 27.4559 6.9908C27.0672 7.11869 26.9788 7.34956 26.9821 7.73157C26.9972 10.1764 26.9888 12.6213 26.9888 15.0645V15.395C26.9888 15.5977 26.8237 15.7621 26.6201 15.7621H25.389C25.1854 15.7621 25.0203 15.5977 25.0203 15.395V8.59856C25.0203 8.33448 24.7467 8.1551 24.5031 8.25974C24.1345 8.41918 23.7941 8.56368 23.4455 8.68659C23.0985 8.80784 22.9817 8.99718 22.985 9.36757C23.0034 11.2726 22.9934 13.1777 22.9934 15.0844V15.3884C22.9934 15.591 22.8282 15.7571 22.623 15.7571H21.4002C21.1967 15.7571 21.0315 15.5927 21.0315 15.3884V10.2761C21.0315 10.012 20.7596 9.83428 20.516 9.93892C20.149 10.095 19.8204 10.2346 19.4817 10.3508C19.1114 10.4787 18.9813 10.683 18.9879 11.08C19.0129 12.4452 18.9979 13.8138 18.9979 15.1808V15.3768C18.9979 15.5794 18.8328 15.7438 18.6276 15.7438H17.3797C17.1762 15.7438 17.0111 15.5794 17.0111 15.3768V11.9752C17.0111 11.7111 16.7391 11.5334 16.4939 11.6364C16.217 11.756 15.9551 11.8656 15.6831 11.9486C15.1476 12.1097 14.9474 12.4004 14.9858 12.9801C15.0375 13.779 15.0108 14.5828 15.0042 15.3884C15.0008 15.591 14.8373 15.7538 14.6338 15.7538H13.401C13.1975 15.7538 13.0323 15.5894 13.0323 15.3867V13.6477C13.0323 13.3837 12.7604 13.2059 12.5168 13.3089C12.1365 13.4717 11.7811 13.6228 11.4174 13.7524C11.0821 13.8703 10.9787 14.0646 10.9987 14.4035C11.0187 14.7323 11.0137 15.0612 11.0087 15.395C11.0054 15.596 10.8419 15.7571 10.64 15.7571H9.41221C9.2187 15.7571 9.05854 15.6093 9.04353 15.4166L9.03519 15.297C9.01684 15.0446 8.75492 14.8868 8.52137 14.9831C7.07334 15.5894 5.67535 16.174 4.27569 16.7586C4.1389 16.8151 4.04881 16.9496 4.04881 17.0975V17.3964C4.04881 17.5991 4.21397 17.7635 4.41916 17.7635H55.6008C55.8044 17.7635 55.9695 17.5991 55.9695 17.3964ZM51.9524 41.297V37.0949C51.9524 36.8923 51.7872 36.7262 51.582 36.7262H50.3259C50.1223 36.7262 49.9572 36.8923 49.9572 37.0949V37.5932C49.9572 37.9868 49.6352 38.3074 49.2398 38.3074H48.706C48.3089 38.3074 47.9886 37.9868 47.9886 37.5932V37.0949C47.9886 36.8923 47.8235 36.7262 47.62 36.7262H46.3838C46.1803 36.7262 46.0151 36.8923 46.0151 37.0949V41.297C46.0151 41.4996 46.1803 41.6641 46.3838 41.6641H51.582C51.7872 41.6641 51.9524 41.4996 51.9524 41.297ZM51.9524 48.2363V44.0574C51.9524 43.8548 51.7872 43.6904 51.5837 43.6904H50.3259C50.1207 43.6904 49.9555 43.8548 49.9555 44.0574V44.5541C49.9555 44.9494 49.6352 45.2682 49.2398 45.2682H48.7043C48.309 45.2682 47.9886 44.9494 47.9886 44.5541V44.0359C47.9886 43.8332 47.8235 43.6688 47.6183 43.6688H46.3871C46.1836 43.6688 46.0185 43.8332 46.0185 44.0359V48.2363C46.0185 48.4389 46.1836 48.6034 46.3871 48.6034H51.5837C51.7872 48.6034 51.9524 48.4389 51.9524 48.2363ZM43.9715 48.2479V44.0458C43.9715 43.8432 43.8064 43.6788 43.6028 43.6788H42.3366C42.1331 43.6788 41.9663 43.8432 41.9663 44.0458V44.5458C41.9663 44.9394 41.646 45.2583 41.2506 45.2583H40.7168C40.3197 45.2583 39.9994 44.9394 39.9994 44.5458V44.0458C39.9994 43.8432 39.8343 43.6788 39.6308 43.6788H38.3829C38.1794 43.6788 38.0142 43.8432 38.0142 44.0458V48.2479C38.0142 48.4506 38.1794 48.615 38.3829 48.615H43.6028C43.8064 48.615 43.9715 48.4506 43.9715 48.2479ZM43.9598 41.2737V37.0949C43.9598 36.8923 43.7947 36.7278 43.5912 36.7278H42.355C42.1515 36.7278 41.9863 36.8923 41.9863 37.0949V37.5915C41.9863 37.9868 41.6643 38.3057 41.269 38.3057H40.7134C40.3164 38.3057 39.9961 37.9868 39.9961 37.5915V37.0965C39.9961 36.8923 39.8309 36.7278 39.6274 36.7278H38.3946C38.1911 36.7278 38.0259 36.8923 38.0259 37.0965V41.2737C38.0259 41.4764 38.1911 41.6425 38.3946 41.6425H43.5912C43.7947 41.6425 43.9598 41.4764 43.9598 41.2737ZM35.969 48.238V44.0574C35.969 43.8532 35.8038 43.6887 35.6003 43.6887H34.3424C34.1389 43.6887 33.9737 43.8532 33.9737 44.0574V44.5557C33.9737 44.9494 33.6534 45.2699 33.2564 45.2699H32.7226C32.3272 45.2699 32.0069 44.9494 32.0069 44.5557V44.0574C32.0069 43.8532 31.8401 43.6887 31.6365 43.6887H30.3804C30.1768 43.6887 30.0117 43.8532 30.0117 44.0574V48.238C30.0117 48.4406 30.1768 48.605 30.3804 48.605H35.6003C35.8038 48.605 35.969 48.4406 35.969 48.238ZM35.969 41.2754V37.0949C35.969 36.8923 35.8038 36.7278 35.6003 36.7278H34.3424C34.1389 36.7278 33.9737 36.8923 33.9737 37.0949V37.5932C33.9737 37.9868 33.6518 38.3074 33.2564 38.3074H32.7226C32.3272 38.3074 32.0052 37.9868 32.0052 37.5932V37.0733C32.0052 36.8707 31.8401 36.7046 31.6365 36.7046H30.402C30.1985 36.7046 30.0334 36.8707 30.0334 37.0733V41.2754C30.0334 41.478 30.1985 41.6425 30.402 41.6425H35.6003C35.8038 41.6425 35.969 41.478 35.969 41.2754Z" fill="#1E8DEE"/>
<path d="M52.9617 23.1465C52.965 26.1295 52.9633 29.1125 52.9633 32.0972C52.9633 32.2566 52.8983 32.3995 52.7948 32.5024C52.6897 32.6054 52.5463 32.6702 52.3878 32.6702H51.5854C51.2667 32.6702 51.0081 32.4144 51.0081 32.0972V30.7601H32.9978V32.0972C32.9978 32.4127 32.7409 32.6702 32.4223 32.6702H31.5948C31.2812 32.6702 31.0193 32.4194 31.0193 32.1071V32.1021C31.0176 29.1191 31.0159 26.1361 31.0176 23.1515C31.0193 22.1034 31.3329 21.7962 32.4039 21.7962C38.7933 21.7945 45.181 21.7945 51.5703 21.7962C52.643 21.7962 52.9617 22.1034 52.9617 23.1465ZM50.9748 28.7122V23.7976H33.0278V28.7122H50.9748Z" fill="#1E8DEE"/>
<path d="M48.9345 25.9966V26.5315C48.9345 26.9035 48.6326 27.2041 48.2606 27.2041H39.7275C39.3538 27.2041 39.0519 26.9035 39.0519 26.5315V25.9966C39.0519 25.6246 39.3538 25.324 39.7275 25.324H48.2606C48.6326 25.324 48.9345 25.6246 48.9345 25.9966Z" fill="#1E8DEE"/>
<path d="M36.9266 26.2358V26.2691C36.9266 26.7839 36.5078 27.2008 35.9907 27.2008C35.7338 27.2008 35.5002 27.0962 35.33 26.9284C35.1616 26.759 35.0565 26.5265 35.0565 26.2691V26.2358C35.0565 25.7226 35.4752 25.3057 35.9907 25.3057C36.5062 25.3057 36.9266 25.7226 36.9266 26.2358Z" fill="#1E8DEE"/>
<path d="M28.9874 31.074V31.1139C28.9874 31.4311 28.7288 31.6869 28.4118 31.6869H27.606C27.2874 31.6869 27.0305 31.4311 27.0305 31.1139V23.7859H9.02016V33.0472C9.02016 33.3827 8.74657 33.6551 8.40958 33.6551H7.63218C7.30688 33.6551 7.04329 33.3927 7.04329 33.0688V33.0622C7.04163 29.7686 7.04163 26.475 7.04163 23.1797C7.04329 22.0918 7.34691 21.7962 8.46297 21.7962C14.8306 21.7945 21.1983 21.7945 27.566 21.7962C28.6804 21.7962 28.9857 22.0935 28.9874 23.1814C28.989 25.8123 28.9874 28.4432 28.9874 31.074Z" fill="#1E8DEE"/>
<path d="M25.9896 33.0157C25.9896 38.4435 25.9896 43.8731 25.9896 49.3009C25.9896 50.2742 25.6542 50.6048 24.675 50.6048C22.0725 50.6081 19.4717 50.6114 16.8693 50.6014C16.4822 50.5998 16.1753 50.6712 15.8533 50.9369C14.7723 51.8355 13.2609 51.8272 12.1765 50.9353C11.8796 50.6895 11.596 50.5915 11.2223 50.5998C10.3898 50.6197 9.55737 50.5848 8.72492 50.6197C8.46301 50.6313 8.15939 50.736 7.95419 50.8971C6.76307 51.8255 5.29501 51.8255 4.10055 50.8954C3.89369 50.7343 3.59174 50.633 3.32649 50.6197C2.62082 50.5815 1.91182 50.6147 1.20448 50.6031C0.427082 50.5915 0.0584007 50.2294 0.0517277 49.4538C0.0417183 47.9191 0.0300406 46.386 0.0650737 44.853C0.0717466 44.5291 0.211879 44.1604 0.405395 43.893C1.26454 42.6971 2.17874 41.5412 3.04622 40.3503C3.38321 39.8885 3.79193 39.6029 4.3608 39.7075C5.21494 39.8636 5.63367 39.4766 5.93395 38.7226C6.24591 37.937 6.688 37.2028 7.05668 36.4372C7.30191 35.9322 7.68227 35.708 8.24947 35.7147C9.80928 35.7296 11.3691 35.7196 13.0357 35.7196C13.0357 34.7845 13.034 33.9192 13.0373 33.0555C13.0407 32.0756 13.366 31.7434 14.3419 31.7418C17.7968 31.7401 21.2518 31.7401 24.705 31.7434C25.6459 31.7434 25.9879 32.0822 25.9896 33.0157ZM23.9843 48.6083V47.6749H16.8676C16.926 48.0137 16.976 48.2961 17.0311 48.6083H23.9843ZM23.9827 38.6628V33.7398H21.9691V34.9589C21.9691 35.15 21.8123 35.3044 21.6204 35.3044H20.3476C20.1557 35.3044 20.0006 35.15 20.0006 34.9589V33.7249H18.0404V38.6628H23.9827ZM23.9793 45.6419V40.7057H21.9824V41.9381C21.9824 42.1291 21.8273 42.2836 21.6354 42.2836H20.3626C20.1707 42.2836 20.0139 42.1291 20.0139 41.9381V40.7057H18.0437V45.6419H23.9793ZM15.9884 45.6204V33.7199H15.0459V45.6204H15.9884ZM14.0066 49.6398C14.5721 49.6448 15.0309 49.1913 15.0292 48.6266C15.0292 48.0652 14.5638 47.6151 13.9982 47.6251C13.4577 47.635 13.0206 48.0685 13.0073 48.6067C12.994 49.1714 13.441 49.6348 14.0066 49.6398ZM12.6103 46.0489C12.9706 45.8595 13.0807 45.6386 13.039 45.2732C13.019 45.0922 13.0357 44.9078 13.0357 44.6388C11.7428 44.6388 10.54 44.6255 9.33716 44.6454C8.84503 44.6537 8.46134 44.4992 8.11935 44.1455C7.38365 43.3864 6.62961 42.644 5.87056 41.9066C5.42847 41.4764 4.61103 41.5395 4.24402 42.0195C3.57839 42.8931 2.91777 43.7701 2.26215 44.652C2.16539 44.7816 2.03527 44.9327 2.03193 45.0772C2.01358 46.2498 2.02192 47.4225 2.02192 48.6183H2.9895C3.4049 46.685 4.4342 45.6835 5.99734 45.6685C7.5755 45.6519 8.62149 46.6501 9.07358 48.6499H10.9954C11.2573 47.2198 11.6443 46.5604 12.6103 46.0489ZM13.0006 42.6789V37.6779C11.601 37.6779 10.2714 37.6679 8.94346 37.6911C8.78331 37.6945 8.56143 37.8489 8.48136 37.9951C8.09432 38.7026 7.754 39.4351 7.37865 40.1493C7.25019 40.3918 7.27522 40.5529 7.47374 40.7439C8.05762 41.302 8.61982 41.8833 9.2037 42.4447C9.31381 42.551 9.4773 42.6673 9.6191 42.6689C10.7352 42.6872 11.8512 42.6789 13.0006 42.6789ZM7.03666 48.6698C7.06001 48.1084 6.61459 47.6384 6.04906 47.6251C5.48352 47.6135 5.01809 48.0619 5.01475 48.625C5.01141 49.1664 5.43181 49.6132 5.97232 49.6398C6.53619 49.668 7.01497 49.2312 7.03666 48.6698Z" fill="#1E8DEE"/>
<path d="M24.9436 25.99V26.5165C24.9436 26.8869 24.6416 27.1875 24.2696 27.1875H15.7366C15.3629 27.1875 15.0609 26.8869 15.0609 26.5165V25.99C15.0609 25.6179 15.3629 25.3173 15.7366 25.3173H24.2696C24.6416 25.3173 24.9436 25.6179 24.9436 25.99Z" fill="#1E8DEE"/>
<path d="M12.9789 26.2607V26.2674C12.9789 26.7806 12.5602 27.1975 12.043 27.1975H12.018C11.5009 27.1975 11.0838 26.7806 11.0838 26.2674V26.2607C11.0838 25.7475 11.5009 25.3306 12.018 25.3306H12.043C12.5602 25.3306 12.9789 25.7475 12.9789 26.2607Z" fill="#1E8DEE"/>
</g>
<defs>
<clipPath id="clip0_1_2723">
<rect width="60" height="51.6495" fill="white"/>
</clipPath>
</defs>
</svg>
