<svg width="60" height="66" viewBox="0 0 60 66" fill="none" xmlns="http://www.w3.org/2000/svg">
<g clip-path="url(#clip0_1_2735)">
<path d="M27.5064 65.3166C25.3314 65.3166 23.1479 65.0964 20.9877 64.6496C14.8407 63.3753 9.40954 60.4634 4.84496 55.9951C3.03528 54.2228 2.66994 51.6636 3.94012 49.6283C4.70903 48.3926 5.98345 47.5887 7.43417 47.4198C9.01871 47.236 10.6011 47.8068 11.7778 48.9827C15.616 52.8224 20.3823 54.9711 25.9473 55.373C36.4486 56.1362 45.9197 49.7609 48.9741 39.8793C51.8734 30.5001 49.6963 22.3225 42.5021 15.5687C36.0366 9.49691 25.7456 8.12221 17.7889 12.0346C20.0106 12.5456 21.5846 14.4377 21.5782 16.7552C21.5718 19.5538 19.5115 21.6939 16.7842 21.7345C12.8377 21.7901 8.80631 21.7922 4.79611 21.7345C2.13681 21.6982 0.0998505 19.6671 0.0552455 17.0118C-0.0148479 12.6482 -0.019096 8.65669 0.0467494 4.81052C0.0934783 2.04188 2.23876 -0.0297892 5.03613 0.0151077C7.64021 0.0471769 9.67929 2.13381 9.77699 4.87039C9.78337 5.02218 9.78549 5.17184 9.78762 5.31936C14.4287 2.31126 19.5561 0.558146 25.0298 0.107039C34.5752 -0.679725 43.9401 2.87141 50.7201 9.84967C57.5043 16.8322 60.822 26.3439 59.8258 35.9455C58.87 45.1557 54.0761 53.5664 46.6695 59.0203C41.0769 63.1402 34.3394 65.3166 27.5064 65.3166ZM8.01404 49.3098C7.89297 49.3098 7.7719 49.3162 7.65083 49.3312C6.76722 49.4338 6.02593 49.902 5.55864 50.6503C4.75575 51.9373 4.99365 53.4574 6.17674 54.6162C10.4758 58.8236 15.5884 61.5666 21.3722 62.766C29.7919 64.5127 38.6003 62.5821 45.5395 57.4703C52.5106 52.335 57.0242 44.4181 57.9227 35.7466C58.8594 26.7159 55.7349 17.7686 49.3501 11.1966C42.9716 4.6288 34.1631 1.28505 25.1848 2.02478C19.9129 2.45878 14.9809 4.17555 10.5289 7.12806C10.2464 7.31406 9.96179 7.48296 9.68566 7.6433L9.59645 7.69462C9.22899 7.90841 8.88277 7.81006 8.75108 7.77372C8.71922 7.76517 8.67462 7.75234 8.6109 7.73737L7.8696 7.56634V6.80095C7.8696 6.61068 7.8696 6.41826 7.87385 6.22157C7.8781 5.80039 7.88235 5.36425 7.86748 4.94094C7.80588 3.22203 6.6058 1.96064 5.01276 1.9414C4.9979 1.9414 4.9809 1.9414 4.96604 1.9414C3.24981 1.9414 1.98813 3.15575 1.95839 4.84687C1.89254 8.67166 1.89679 12.6418 1.96689 16.9861C1.9945 18.6302 3.16697 19.7933 4.8216 19.8168C8.81268 19.8724 12.8292 19.8724 16.7566 19.8168C18.4388 19.7933 19.6623 18.5062 19.6665 16.7574C19.6708 15.1432 18.4431 13.9139 16.746 13.8327C16.644 13.8284 16.5421 13.8241 16.4401 13.822C15.9134 13.8049 15.3165 13.7856 14.6453 13.5676L12.9291 13.0074L14.3543 11.8935C14.4074 11.8508 14.4605 11.808 14.5115 11.7653C14.6538 11.6455 14.8174 11.5109 15.0106 11.3911C23.8594 5.87095 36.2383 7.06606 43.8063 14.1705C47.6487 17.7772 50.1912 21.8393 51.3658 26.2413C52.5425 30.654 52.3513 35.4366 50.7987 40.4608C49.1929 45.6517 45.8008 50.1885 41.2447 53.2329C36.7311 56.2495 31.2511 57.6948 25.8093 57.3014C19.7749 56.8653 14.6007 54.5285 10.4291 50.3552C9.75788 49.686 8.89552 49.3183 8.01404 49.3183V49.3098Z" fill="#1E8DEE"/>
<path d="M44.7239 20.9541C45.0085 21.1336 45.1232 21.356 45.1211 21.7087C45.1105 25.6148 45.1105 38.5258 45.1126 41.2838C45.1126 41.6088 44.9427 41.9059 44.6644 42.0706C42.432 43.3897 31.2808 49.9746 28.288 51.7426C27.8292 52.0142 27.26 52.0184 26.797 51.7576C25.9473 51.2766 24.5901 50.5069 23.8785 50.0793C22.3789 49.2177 20.907 48.307 19.4371 47.3919C19.0272 47.1439 18.6024 46.9194 18.1925 46.6693C17.9036 46.494 17.6423 46.2674 17.3428 46.1134C15.8433 45.3031 14.4244 44.3475 12.9588 43.4816C12.0433 42.9193 11.0939 42.4126 10.2018 41.814C9.63043 41.427 9.78761 40.9909 9.75787 41.0294V21.4864C9.87257 21.4244 9.90231 21.2983 9.95541 21.1978C10.017 21.0759 10.1083 20.9947 10.2188 20.9305C10.6054 20.7082 10.9877 20.473 11.3828 20.2699C12.9503 19.4233 14.5009 18.5531 16.062 17.6958C19.7409 15.6199 23.4367 13.5546 27.1687 11.577C27.4257 11.4274 27.6806 11.4487 27.9354 11.6112C28.2562 11.8143 28.5769 12.0281 28.9146 12.1927C29.7515 12.5947 30.5438 13.0843 31.3615 13.5225C32.5659 14.2067 33.7914 14.8481 35.0021 15.5172C35.7625 15.9555 36.5293 16.3874 37.3088 16.7915C37.8632 17.0993 38.3985 17.4478 38.9699 17.7193C40.1742 18.3372 41.3488 19.0384 42.5446 19.682C43.2732 20.1074 44.0123 20.5072 44.726 20.9583L44.7239 20.9541ZM43.5599 23.4533C43.562 23.1433 43.5238 23.1091 43.2434 23.2288C42.6975 23.4661 42.2026 23.7954 41.712 24.1139C40.9962 24.58 40.2464 24.9884 39.5285 25.4544C39.3309 25.5827 39.2608 25.7153 39.263 25.944C39.2736 27.4085 39.2736 28.8751 39.2651 30.3418C39.2608 30.9682 39.195 31.5839 38.4622 31.8212C36.9053 32.6059 35.3441 33.5829 33.7787 34.3568C33.2073 34.654 32.5149 34.2671 32.5956 33.5808C32.5935 32.4883 32.5956 31.2183 32.5956 30.1258C32.5956 29.7517 32.5128 29.6918 32.2026 29.88C31.4061 30.361 30.5926 30.81 29.8131 31.3145C29.4796 31.5305 29.1228 31.7101 28.7808 31.9089C28.4707 32.0842 28.2732 32.2788 28.2753 32.7128C28.3645 38.4083 28.1478 44.1807 28.356 49.8399C29.4223 49.2583 43.5599 40.7664 43.5599 40.7664C43.5599 40.7664 43.5047 27.2332 43.5599 23.4512V23.4533ZM41.4847 22.4057C41.8755 22.1513 42.3046 21.9439 42.6891 21.5805C42.2685 21.3389 41.8904 21.0781 41.4762 20.8985C40.8475 20.6248 40.2889 20.225 39.6835 19.9086C37.2557 18.5959 34.8513 17.2511 32.432 15.9213C31.6334 15.5322 30.8794 15.064 30.1083 14.6279C29.3925 14.2323 28.6661 13.8582 27.9652 13.4327C27.6742 13.2553 27.3874 13.1847 27.0667 13.3772C26.7056 13.5952 26.3318 13.7962 25.9601 13.9993C25.6054 14.1896 25.2379 14.3649 24.8832 14.5616C24.6687 14.6792 24.418 14.7604 24.28 15.002C24.3394 15.0661 24.3777 15.1281 24.4329 15.1623C25.4631 15.8401 26.5315 16.4579 27.5531 17.1464C27.8441 17.3516 28.133 17.5633 28.4431 17.7343C30.1062 18.7306 31.7269 19.7974 33.3709 20.83C33.8021 21.108 34.2162 21.4223 34.6665 21.6703C35.4354 22.0936 36.1343 22.6302 36.8968 23.0663C37.3938 23.3528 37.8632 23.6863 38.3454 23.9963C38.5153 24.1054 38.6937 24.1289 38.87 24.0113C39.3161 23.7077 39.7727 23.417 40.2422 23.1497C40.6606 22.9145 41.0769 22.673 41.4826 22.41L41.4847 22.4057ZM37.6784 30.0254C37.6784 29.0355 37.6784 28.0478 37.6763 27.0579C37.6742 26.7265 37.5595 26.6645 37.2727 26.8334C36.797 27.1584 36.2659 27.3871 35.788 27.7078C35.4248 27.9387 35.0531 28.1568 34.6814 28.3749C34.384 28.5502 34.1525 28.7212 34.1716 29.1552C34.212 30.0809 34.178 31.1948 34.1738 32.1227C34.1738 32.1997 34.161 32.2788 34.2375 32.345C35.2422 31.9752 36.1682 31.1713 37.1644 30.7651C37.585 30.5876 37.6763 30.4829 37.6763 30.0275L37.6784 30.0254ZM36.9414 25.1273C36.9201 25.0097 36.8522 24.9798 36.797 24.9456C35.7477 24.2807 34.7111 23.5987 33.664 22.9274C32.9588 22.4207 32.1772 22.0294 31.4656 21.5334C30.4418 20.83 29.3713 20.2015 28.322 19.5345C26.4868 18.3009 24.571 17.1955 22.7443 15.9491C22.6614 15.8957 22.5829 15.8572 22.4851 15.9149C21.6355 16.4216 20.7668 16.8877 19.9023 17.3602C19.6368 17.5098 19.3777 17.668 19.0994 17.8006C18.8934 17.8989 18.9019 18.0037 19.0973 18.1234C21.661 19.7076 24.1568 21.3923 26.7099 23.0001C28.7957 24.3619 30.8921 25.7003 32.9779 27.06C33.288 27.2674 33.4367 27.2888 33.7405 27.1007C34.7876 26.4186 35.9027 25.8157 36.9393 25.1273H36.9414ZM31.7821 28.2295C31.7906 28.114 31.6971 28.0713 31.6164 28.0264C30.6563 27.5069 29.7876 26.8441 28.8573 26.2775C28.0416 25.7837 27.2727 25.2171 26.4465 24.7361C25.7838 24.3512 25.1763 23.8723 24.5136 23.4811C22.9376 22.4741 21.3488 21.4757 19.794 20.4303C19.0591 19.9278 18.271 19.5152 17.5574 18.985C17.3896 18.8589 17.1963 18.8503 17.0327 18.9508C16.5421 19.2544 16.0217 19.496 15.5204 19.7782C14.5901 20.2977 13.6576 20.8108 12.7124 21.2983C12.5637 21.3774 12.3704 21.4201 12.2897 21.6403C13.6428 22.596 15.1296 23.3571 16.5293 24.2508C18.356 25.371 20.1933 26.4742 22.0327 27.5796C23.6959 28.6143 25.3845 29.6063 27.0497 30.6325C27.4066 30.8613 27.6296 30.8506 27.9758 30.6069C28.3008 30.3803 28.6427 30.175 28.9826 29.9676C29.8789 29.478 30.7264 28.9051 31.6143 28.4027C31.6886 28.362 31.78 28.3342 31.7863 28.2338L31.7821 28.2295ZM26.6058 49.8228C26.7162 49.6988 26.678 49.5748 26.678 49.4593C26.6865 48.4053 26.6865 34.2713 26.6695 32.546C26.6695 32.3579 26.6228 32.221 26.4529 32.1206C23.2243 30.1878 20.0234 28.2188 16.7927 26.2882C15.1784 25.2684 13.5047 24.3512 11.8947 23.325C11.7608 23.2459 11.6207 23.1561 11.421 23.2117C11.4125 24.3128 11.4274 25.4181 11.4083 26.5234C11.4104 26.5384 11.4104 26.5533 11.4083 26.5683C11.4083 28.9115 11.4061 33.4461 11.3891 34.3782C11.3552 36.4242 11.4486 38.4681 11.4146 40.5163C11.4125 40.6894 11.4932 40.7771 11.6313 40.8541C12.0115 41.0721 12.3874 41.2988 12.7676 41.5232C13.6173 42.0428 14.4902 42.5366 15.3335 43.0583C17.4151 44.3646 19.5327 45.611 21.6398 46.8788C22.4894 47.4283 23.3687 47.935 24.2354 48.4588C24.8216 48.8115 25.4078 49.1664 25.9962 49.5106C26.1959 49.6261 26.3828 49.7715 26.6058 49.8249V49.8228Z" fill="#1E8DEE"/>
<path d="M36.7948 24.9477C36.85 24.982 36.918 25.0119 36.9392 25.1295C35.9027 25.8179 34.7876 26.4208 33.7404 27.1028C33.4367 27.2931 33.288 27.2696 32.9779 27.0622C30.89 25.7024 28.7935 24.3641 26.7098 23.0022C24.1567 21.3945 21.661 19.7098 19.0973 18.1256C18.9019 18.0037 18.8934 17.9011 19.0994 17.8027C19.3776 17.6702 19.6368 17.512 19.9023 17.3623C20.7668 16.892 21.6355 16.4237 22.4851 15.917C22.5828 15.8615 22.6635 15.8999 22.7443 15.9513C24.5709 17.1977 26.4868 18.303 28.322 19.5366C29.3713 20.2036 30.4397 20.8322 31.4656 21.5356C32.1771 22.0316 32.9588 22.4228 33.664 22.9295C34.7111 23.5987 35.7455 24.2807 36.7969 24.9477H36.7948Z" fill="white"/>
<path d="M31.6143 28.0264C31.6971 28.0713 31.7885 28.1162 31.78 28.2295C31.7736 28.3321 31.6823 28.3599 31.6079 28.3984C30.7179 28.9008 29.8704 29.4738 28.9762 29.9634C28.6364 30.1707 28.2944 30.376 27.9694 30.6026C27.6232 30.8463 27.4002 30.857 27.0433 30.6283C25.3781 29.5999 23.6895 28.6079 22.0263 27.5753C20.189 26.47 18.3496 25.3668 16.5229 24.2465C15.1232 23.355 13.6364 22.5917 12.2834 21.6361C12.3641 21.418 12.5552 21.3731 12.706 21.294C13.6534 20.8065 14.5837 20.2934 15.514 19.7739C16.0132 19.4917 16.5357 19.2501 17.0263 18.9465C17.192 18.8439 17.3832 18.8546 17.551 18.9807C18.2625 19.5109 19.0527 19.9236 19.7876 20.426C21.3424 21.4714 22.9312 22.4699 24.5072 23.4768C25.1721 23.8681 25.7795 24.347 26.4401 24.7318C27.2664 25.2128 28.0374 25.7794 28.8509 26.2733C29.7812 26.842 30.65 27.5047 31.61 28.0221L31.6143 28.0264Z" fill="white"/>
</g>
<defs>
<clipPath id="clip0_1_2735">
<rect width="60" height="65.3165" fill="white"/>
</clipPath>
</defs>
</svg>
