<svg width="60" height="60" viewBox="0 0 60 60" fill="none" xmlns="http://www.w3.org/2000/svg">
<g clip-path="url(#clip0_1_2715)">
<path d="M59.9469 40.9549C59.9507 45.2819 59.9431 49.6107 59.9526 53.9358C59.8674 56.2717 58.3875 58.3689 56.2766 59.3313C55.8351 59.5397 55.388 59.6553 54.9086 59.6875C54.7949 59.695 40.7295 59.7329 40.3865 59.6988C39.0317 59.7197 37.9687 58.9752 36.9967 58.1264C36.0038 57.2606 35.532 56.0387 35.1682 54.8584C34.9882 54.8187 34.9275 54.8698 34.8612 54.902C34.1734 55.2601 33.5424 55.7148 32.8792 56.1145C32.1118 56.5767 31.3179 57.0087 30.558 57.488C29.7205 58.009 28.8735 58.5148 28.0284 59.0244C27.4922 59.3446 26.9465 59.6458 26.4008 59.9451C26.1487 59.9982 26.0047 59.7974 25.7963 59.7007C24.1175 58.871 22.5694 57.8082 20.9645 56.8533C18.7418 55.584 16.5628 54.2465 14.3856 52.8996C13.7773 52.5358 13.1483 52.2043 12.5419 51.8368C12.1137 51.5772 11.7271 51.2438 11.2837 51.0183C9.0611 49.8248 6.96162 48.421 4.78824 47.146C3.43154 46.32 2.02557 45.5736 0.704872 44.6908C-0.14212 44.1224 0.0928394 43.4783 0.0473633 43.5352V14.777C0.216004 14.686 0.26148 14.5004 0.339168 14.3507C0.43012 14.1726 0.564654 14.0514 0.729504 13.9586C1.30364 13.6308 1.8683 13.2841 2.45381 12.9867C4.77498 11.742 7.07152 10.4614 9.38512 9.19964C14.8366 6.14574 20.3107 3.107 25.838 0.197083C26.2188 -0.024571 26.5959 0.00763515 26.973 0.246339C27.4467 0.545667 27.9223 0.858256 28.4244 1.10264C29.6637 1.69561 30.8366 2.41552 32.0493 3.05964C33.8323 4.06561 35.6494 5.00906 37.4439 5.99418C38.5713 6.6402 39.7063 7.27485 40.8602 7.86782C41.6826 8.3206 42.4746 8.83401 43.3197 9.23185C45.1028 10.1412 46.8441 11.1718 48.6158 12.119C49.694 12.7461 50.7911 13.3334 51.8465 13.9984C52.2691 14.2636 52.4377 14.5894 52.4358 15.1085C52.4169 21.5573 52.4225 28.0023 52.4225 34.4492C52.4225 34.9285 52.4756 34.9873 52.9701 34.9835C53.6011 34.974 54.2207 35.0365 54.8422 35.1331C57.658 35.5443 59.8219 38.1548 59.9469 40.9549ZM57.5992 53.646V47.5117H57.5973C57.5973 45.405 57.5973 43.2965 57.5992 41.1898C57.5992 40.36 57.3567 39.5909 56.8716 38.9354C55.6703 37.3137 54.1298 37.2853 52.2785 37.3989C49.5424 37.4046 46.8062 37.4084 44.072 37.3989C41.5481 37.4539 39.3936 36.8154 37.8854 39.4052C37.4458 40.1592 37.4249 40.9776 37.423 41.8339C37.4116 45.8085 37.4192 49.785 37.4382 53.7596C37.4458 55.62 39.0185 57.4899 41.1464 57.4823C45.387 57.4653 49.6277 57.4823 53.8683 57.4766C54.3439 57.4747 54.8479 57.4615 55.2686 57.2474C56.7352 56.5085 57.5992 55.3491 57.5992 53.646ZM50.1222 17.6755C50.126 17.2209 50.0673 17.1697 49.6523 17.3459C48.8451 17.6945 48.1099 18.1795 47.3842 18.6493C46.3231 19.3351 45.2127 19.9375 44.1497 20.6233C43.856 20.8128 43.7537 21.006 43.7556 21.3432C43.7707 23.4992 43.7726 25.657 43.7593 27.8148C43.7518 28.7374 43.657 29.643 42.5713 29.9915C40.2634 31.1472 37.9517 32.5851 35.6343 33.7237C34.7873 34.1613 33.7622 33.5929 33.8816 32.5813C33.8778 30.9748 33.8835 29.1049 33.8835 27.4984C33.8835 26.9471 33.7622 26.86 33.2999 27.1366C32.1213 27.8432 30.9143 28.5044 29.7584 29.2489C29.2657 29.5653 28.7371 29.8305 28.2293 30.1223C27.7707 30.3818 27.477 30.666 27.4789 31.3044C27.6116 39.6856 27.2913 48.1804 27.5983 56.5085C29.1767 55.6522 30.685 54.6766 32.235 53.7729C33.0819 53.2936 33.9119 52.7745 34.7323 52.246C35.0166 52.0679 35.0943 51.9012 35.0943 51.5962C35.0848 48.1596 35.1094 44.723 35.0753 41.2864C35.0753 39.3218 36.0512 37.2796 37.7053 36.1922C38.1961 35.8928 38.6736 35.5443 39.2269 35.3794C40.3505 35.0422 41.5102 34.9721 42.6831 34.9835C44.9398 35.0043 47.1966 35.0062 49.4552 35.01C50.0635 35.0119 50.0843 34.9797 50.1033 34.3754C50.0881 28.8075 50.0388 23.2434 50.1222 17.6755ZM47.0469 16.1334C47.6267 15.7583 48.2615 15.4533 48.8318 14.9191C48.2084 14.5648 47.6494 14.1802 47.0355 13.915C46.1052 13.5115 45.2771 12.9242 44.3809 12.4581C40.7845 10.5258 37.2222 8.54794 33.6371 6.59095C32.4529 6.01692 31.3368 5.32922 30.1961 4.687C29.1369 4.1035 28.0587 3.5541 27.0223 2.92703C26.5902 2.66559 26.1658 2.56139 25.6921 2.84556C25.1558 3.16573 24.6044 3.46316 24.053 3.7606C23.5263 4.04098 22.9844 4.29863 22.4576 4.58659C22.1412 4.76088 21.7698 4.87834 21.5632 5.2345C21.6523 5.32922 21.7072 5.42016 21.7887 5.46941C23.316 6.46591 24.8962 7.37526 26.4121 8.3888C26.8422 8.69003 27.2705 9.00072 27.729 9.25269C30.1923 10.719 32.5931 12.2895 35.0298 13.8089C35.6684 14.2181 36.2823 14.6804 36.9493 15.0441C38.0881 15.6674 39.1246 16.4574 40.252 17.0996C40.9891 17.5202 41.6826 18.0128 42.3989 18.4674C42.6509 18.6266 42.9161 18.6626 43.1776 18.4902C43.8389 18.0431 44.5135 17.6149 45.2108 17.2228C45.8304 16.8761 46.4462 16.5199 47.0469 16.1334ZM41.4079 27.3468C41.4079 25.89 41.4079 24.4369 41.4041 22.9801C41.4003 22.4913 41.2316 22.4004 40.8072 22.6485C40.1023 23.1278 39.316 23.4632 38.6092 23.9368C38.071 24.2759 37.5197 24.598 36.9701 24.9181C36.5305 25.1777 36.1857 25.4277 36.2141 26.0662C36.2747 27.4283 36.2236 29.067 36.2179 30.4329C36.2179 30.5447 36.199 30.6622 36.3107 30.7588C37.8001 30.2151 39.1701 29.0329 40.648 28.4324C41.2695 28.1709 41.406 28.0156 41.4079 27.3468ZM40.3164 20.1402C40.2842 19.966 40.1857 19.9243 40.1023 19.8731C38.5467 18.8937 37.0137 17.8896 35.4619 16.9045C34.4178 16.1581 33.2601 15.5821 32.2046 14.8528C30.6869 13.8165 29.1028 12.892 27.549 11.9106C24.8318 10.0957 21.9934 8.46837 19.2875 6.63452C19.1663 6.55685 19.0469 6.50001 18.9029 6.58337C17.6447 7.3279 16.3581 8.01559 15.0772 8.70897C14.6831 8.92873 14.2984 9.16175 13.8872 9.35688C13.5822 9.50086 13.5935 9.65432 13.8835 9.8324C17.6807 12.1626 21.3794 14.6425 25.1615 17.0087C28.2501 19.013 31.3557 20.9833 34.4481 22.9839C34.9067 23.2889 35.1284 23.3211 35.5774 23.0426C37.1274 22.0404 38.7797 21.1519 40.3164 20.1402ZM32.6727 24.704C32.6859 24.5354 32.5476 24.471 32.4263 24.4047C31.0052 23.6412 29.7186 22.6656 28.3392 21.8301C27.1322 21.1026 25.9915 20.2691 24.7674 19.5624C23.7859 18.996 22.8858 18.2912 21.9024 17.7153C19.568 16.2338 17.2127 14.7637 14.9105 13.2254C13.8228 12.4866 12.6537 11.8803 11.5983 11.0998C11.3482 10.9141 11.0639 10.9009 10.8195 11.0505C10.0919 11.4957 9.32069 11.8519 8.57981 12.2668C7.20037 13.0322 5.82093 13.7862 4.41875 14.5042C4.19706 14.6197 3.91283 14.6842 3.79346 15.0062C5.79819 16.4119 7.99999 17.5334 10.0729 18.8463C12.7788 20.4945 15.5017 22.1181 18.2245 23.7435C20.6878 25.2648 23.189 26.7255 25.6561 28.2372C26.1847 28.5745 26.5163 28.5593 27.0279 28.1994C27.5092 27.8659 28.0152 27.5628 28.5192 27.2578C29.8456 26.536 31.1018 25.693 32.4188 24.9541C32.5287 24.8954 32.6632 24.8537 32.6727 24.704ZM25.1123 51.168C25.1558 46.9585 25.0213 42.7471 25.0763 38.5375C25.1615 36.0444 25.0213 33.5513 25.099 31.0562C25.1028 30.7796 25.0308 30.5769 24.7788 30.4292C19.9962 27.5837 15.2534 24.6889 10.4671 21.8453C8.07579 20.3449 5.59734 18.996 3.20985 17.4861C3.01089 17.3686 2.80435 17.236 2.50686 17.3194C2.4936 18.941 2.51634 20.5665 2.48791 22.1939C2.4917 22.2147 2.4917 22.2393 2.48791 22.2602C2.48791 25.7081 2.48412 32.3805 2.45949 33.7521C2.41022 36.7624 2.54855 39.7708 2.49739 42.7831C2.4936 43.0369 2.61487 43.1657 2.81761 43.2794C3.38228 43.6015 3.93936 43.933 4.50023 44.2626C5.7584 45.028 7.05068 45.7536 8.30127 46.5209C11.3842 48.4437 14.522 50.2776 17.6447 52.1418C18.9048 52.9507 20.2065 53.6971 21.4912 54.4682C22.361 54.9873 23.2288 55.5101 24.1004 56.016C24.396 56.1865 24.6746 56.3987 25.0043 56.4782C25.1672 56.2945 25.1179 56.1145 25.1123 55.944C25.0384 54.3526 25.0895 52.7575 25.1123 51.168Z" fill="#1E8DEE"/>
<path d="M54.9503 51.1263V53.6213C54.9503 54.273 54.4216 54.8016 53.7698 54.8016H51.2743C50.6225 54.8016 50.0938 54.273 50.0938 53.6213C50.0938 52.9696 50.6225 52.4411 51.2743 52.4411H52.5874V51.1263C52.5874 50.4746 53.1161 49.946 53.7698 49.946C54.4235 49.946 54.9503 50.4746 54.9503 51.1263Z" fill="#1E8DEE"/>
<path d="M54.9503 41.0438V43.7776C54.9503 44.3383 54.4936 44.7949 53.9327 44.7949H51.1985C50.6357 44.7949 50.181 44.3383 50.181 43.7776V41.0438C50.181 40.4812 50.6357 40.0265 51.1985 40.0265H53.9327C54.4936 40.0265 54.9503 40.4812 54.9503 41.0438Z" fill="#1E8DEE"/>
<path d="M53.7698 46.2726C54.4216 46.2726 54.9503 46.8011 54.9503 47.4528C54.9503 47.7787 54.8176 48.0742 54.6054 48.2883C54.3913 48.5005 54.0957 48.6331 53.7698 48.6331H51.2743C50.6225 48.6331 50.0938 48.1045 50.0938 47.4528C50.0938 47.127 50.2265 46.8315 50.4406 46.6174C50.6547 46.4033 50.9484 46.2726 51.2743 46.2726H53.7698Z" fill="#1E8DEE"/>
<path d="M48.6897 41.2181V53.6212C48.6897 53.9471 48.5571 54.2426 48.3449 54.4567C48.1307 54.6689 47.8351 54.8015 47.5092 54.8015C46.8574 54.8015 46.3288 54.2729 46.3288 53.6212V48.6331H41.3112C40.6575 48.6331 40.1288 48.1045 40.1288 47.4528C40.1288 46.8011 40.6575 46.2726 41.3112 46.2726H46.3288V41.2181C46.3288 40.5664 46.8574 40.0378 47.5092 40.0378C48.1611 40.0378 48.6897 40.5664 48.6897 41.2181Z" fill="#1E8DEE"/>
<path d="M44.8981 51.0505V53.7843C44.8981 54.345 44.4434 54.8016 43.8806 54.8016H41.1483C40.5855 54.8016 40.1288 54.345 40.1288 53.7843V51.0505C40.1288 50.4879 40.5855 50.0332 41.1483 50.0332H43.8806C44.4434 50.0332 44.8981 50.4879 44.8981 51.0505Z" fill="#1E8DEE"/>
<path d="M43.8048 40.0265C44.4567 40.0265 44.9853 40.555 44.9853 41.2067C44.9853 41.8584 44.4567 42.387 43.8048 42.387H42.4917V43.7018C42.4917 44.3535 41.963 44.882 41.3112 44.882C40.6594 44.882 40.1288 44.3535 40.1288 43.7018V41.2067C40.1288 40.555 40.6575 40.0265 41.3112 40.0265H43.8048Z" fill="#1E8DEE"/>
</g>
<defs>
<clipPath id="clip0_1_2715">
<rect width="60" height="60" fill="white"/>
</clipPath>
</defs>
</svg>
