<svg width="50" height="63" viewBox="0 0 50 63" fill="none" xmlns="http://www.w3.org/2000/svg">
<g clip-path="url(#clip0_1_2869)">
<path d="M25.865 0C27.9073 0.498134 29.3656 1.96623 31.0153 3.10882C31.8055 3.65792 32.6254 3.95219 33.5938 3.94726C35.0933 3.93904 36.611 3.8667 38.0875 4.06234C40.1017 4.32867 41.4677 5.57154 42.1688 7.46873C42.6224 8.69515 42.9986 9.95118 43.3994 11.1957C43.6469 11.9651 44.0939 12.5767 44.7522 13.0468C45.704 13.7258 46.6526 14.4114 47.5962 15.1035C49.7771 16.7031 50.493 18.9307 49.655 21.5003C49.3119 22.5492 48.977 23.6014 48.6157 24.6453C48.3138 25.5133 48.3221 26.3633 48.6207 27.2313C49.0067 28.3525 49.3729 29.482 49.7243 30.6147C50.4452 32.9295 49.721 35.1752 47.781 36.6236C46.778 37.3732 45.7733 38.1212 44.734 38.8216C43.5611 39.6124 43.34 40.893 42.9573 42.0899C42.9078 42.2461 43.0992 42.4959 43.213 42.6817C45.064 45.7281 46.9149 48.7744 48.7774 51.8125C49.4537 52.9157 49.5874 54.0402 48.9374 55.1844C48.3798 56.1642 47.5104 56.71 46.3705 56.7314C44.7654 56.761 43.1602 56.761 41.5551 56.7429C41.1922 56.7396 41.0091 56.8613 40.8523 57.1736C40.1859 58.4872 39.4864 59.786 38.8166 61.0979C38.2294 62.2487 37.3352 62.9589 36.0155 62.9967C34.6958 63.0362 33.7752 62.3753 33.1071 61.2656C31.2364 58.16 29.3409 55.0693 27.4537 51.9736C27.3481 51.801 27.2343 51.635 27.1287 51.4739C25.1392 51.9819 24.8983 51.9819 22.8511 51.4739C21.5577 53.5946 20.2578 55.7253 18.9595 57.8575C18.2567 59.0116 17.5474 60.1624 16.8529 61.3231C16.1996 62.4147 15.2659 63.0395 13.9742 62.9984C12.6841 62.9573 11.79 62.2766 11.2077 61.1472C10.5231 59.8188 9.817 58.502 9.14228 57.1704C8.98226 56.8547 8.79255 56.7429 8.43457 56.7462C6.89212 56.7643 5.34803 56.7659 3.80558 56.7396C1.24364 56.6952 -0.175084 54.1799 1.14301 51.9786C2.99394 48.8846 4.87952 45.8119 6.7651 42.7393C6.9944 42.3661 7.02905 42.0586 6.92347 41.6148C6.56384 40.1088 5.73735 39.0057 4.41431 38.2051C3.66041 37.7497 2.97415 37.1858 2.26314 36.663C0.288475 35.2097 -0.457178 32.9541 0.273628 30.618C0.626658 29.4853 0.991237 28.3558 1.37726 27.2346C1.67585 26.3666 1.67915 25.5183 1.38221 24.6486C0.997835 23.5274 0.633257 22.398 0.280227 21.2669C-0.453879 18.9127 0.275278 16.685 2.25489 15.2202C3.2282 14.5001 4.2081 13.7883 5.19791 13.0879C5.89407 12.5947 6.36423 11.9569 6.61663 11.1398C6.96636 10.0071 7.34414 8.88257 7.71861 7.75643C8.52035 5.34467 10.462 3.94726 13.0141 3.94233C14.187 3.93904 15.3599 3.92753 16.5328 3.94726C17.4121 3.96206 18.1891 3.70888 18.8853 3.18115C19.2944 2.87208 19.7134 2.57616 20.1291 2.27531C21.3796 1.36946 22.5772 0.368258 24.1362 0.00493202H25.865V0ZM8.8074 40.7401C9.10104 41.6756 9.37983 42.6176 9.68997 43.5481C10.1849 45.0392 11.3693 45.8875 12.9382 45.8958C14.2134 45.9023 15.4886 45.9007 16.7638 45.899C17.9334 45.899 18.9826 46.2607 19.9279 46.9381C20.9292 47.6548 21.9273 48.3782 22.927 49.0983C24.2846 50.0748 25.6753 50.0929 27.038 49.1312C28.0443 48.4209 29.0374 47.691 30.0338 46.9676C31.0104 46.2591 32.0959 45.8892 33.3117 45.8958C34.5456 45.904 35.7796 45.899 37.0135 45.8958C38.6302 45.8908 39.8064 45.054 40.3178 43.5366C40.7303 42.3151 41.1212 41.087 41.532 39.8639C41.8867 38.8035 42.5202 37.9371 43.4258 37.2762C44.4536 36.5249 45.4896 35.7851 46.5124 35.0289C47.8206 34.0622 48.2544 32.7273 47.7661 31.1786C47.4032 30.0278 47.0205 28.8819 46.6476 27.7344C46.2748 26.5918 46.2303 25.4459 46.6048 24.2951C46.9974 23.0884 47.3966 21.885 47.7777 20.675C48.2528 19.1593 47.8288 17.8194 46.552 16.8675C45.5655 16.1326 44.5526 15.4307 43.5512 14.7139C42.3634 13.8327 41.6607 12.649 41.2681 11.2384C40.9942 10.2537 40.6511 9.28864 40.3195 8.32032C39.8064 6.81605 38.6632 6.00063 37.0647 5.99076C35.9742 5.98254 34.8838 5.97761 33.795 5.99076C32.2856 6.01049 30.9229 5.62908 29.7187 4.67884C28.8658 4.0048 27.9634 3.39159 27.0792 2.75864C25.7149 1.7821 24.2616 1.79197 22.9072 2.77344C21.8926 3.50831 20.8814 4.24647 19.8602 4.96983C19.0387 5.55181 18.1264 5.91185 17.1102 5.93487C15.7327 5.9661 14.3553 5.97432 12.9794 5.98747C11.31 6.00227 10.1981 6.80455 9.66358 8.40088C9.29405 9.50729 8.92782 10.6137 8.57809 11.7267C8.18382 12.9844 7.45466 13.9889 6.37578 14.7517C5.43711 15.4142 4.50834 16.0932 3.57793 16.7689C2.16745 17.7914 1.73194 19.105 2.25819 20.7572C2.61947 21.8883 2.98569 23.0161 3.35852 24.1422C3.75939 25.3506 3.74949 26.5524 3.34697 27.7607C2.9659 28.9066 2.58977 30.0541 2.22519 31.2049C1.74679 32.7125 2.18725 34.0671 3.4608 35.0091C4.4836 35.7654 5.51959 36.5068 6.54899 37.2565C7.47446 37.9289 8.11618 38.8084 8.48241 39.8902C8.57974 40.1779 8.69852 40.459 8.80905 40.7434L8.8074 40.7401ZM7.91987 44.7778C7.23691 45.8892 6.60343 46.915 5.97491 47.9442C4.98345 49.5685 3.98375 51.1878 3.01869 52.8269C2.84712 53.1195 2.70855 53.5174 2.75639 53.8347C2.85702 54.5087 3.27604 54.7487 4.13222 54.752C5.87922 54.7586 7.62788 54.7668 9.37489 54.7487C9.93742 54.7438 10.2905 54.9641 10.5462 55.4622C11.3594 57.0471 12.2008 58.6171 13.0289 60.1953C13.542 61.1735 14.4872 61.2228 15.0861 60.2775C15.8416 59.0856 16.5708 57.8773 17.3049 56.6706C18.4959 54.7142 19.6788 52.7513 20.8764 50.7982C21.0892 50.4496 21.0711 50.2409 20.6983 50.0041C20.1456 49.6556 19.6408 49.2314 19.1129 48.8435C18.3524 48.2845 17.5424 47.9212 16.551 47.9705C15.4638 48.0247 14.3701 48.0264 13.283 47.9672C12.5357 47.9261 11.7686 47.8258 11.0559 47.6039C9.63553 47.1633 8.67377 46.1407 7.91822 44.7762L7.91987 44.7778ZM42.0896 44.7778C41.984 44.9406 41.9395 45.0063 41.8999 45.0754C40.9282 46.6964 39.587 47.7765 37.6256 47.8718C36.1722 47.9425 34.7122 47.9064 33.2605 48.005C32.6485 48.0461 31.9919 48.2039 31.4607 48.4982C30.6425 48.952 29.9034 49.5537 29.1611 50.1307C29.0522 50.2162 29.0209 50.5384 29.0902 50.688C29.2683 51.076 29.5224 51.4278 29.7467 51.7944C31.4822 54.6419 33.2077 57.4959 34.958 60.3334C35.5008 61.213 36.4708 61.1505 36.9492 60.243C37.7724 58.6861 38.6137 57.1391 39.4006 55.5642C39.6992 54.9674 40.0984 54.7339 40.7583 54.7454C42.4641 54.775 44.1715 54.7372 45.8772 54.7602C46.9594 54.775 47.7612 53.9563 46.9974 52.8072C46.3969 51.9046 45.8574 50.9626 45.2933 50.037C44.2408 48.3092 43.1883 46.5797 42.0912 44.7762L42.0896 44.7778Z" fill="#1E8DEE"/>
<path d="M8.80762 40.7401C8.69874 40.4557 8.57996 40.1746 8.48098 39.8869C8.11475 38.8051 7.47303 37.9272 6.54756 37.2532C5.51816 36.5052 4.48382 35.7637 3.45937 35.0058C2.18582 34.0638 1.74701 32.7091 2.22376 31.2016C2.58834 30.0508 2.96282 28.9033 3.34554 27.7574C3.74806 26.5507 3.75796 25.3489 3.35709 24.1389C2.98426 23.0128 2.61803 21.8834 2.25676 20.7539C1.73051 19.1033 2.16767 17.7898 3.5765 16.7656C4.50691 16.0899 5.43403 15.4109 6.37434 14.7484C7.45323 13.9855 8.18239 12.9811 8.57666 11.7234C8.92639 10.6104 9.29262 9.50398 9.66215 8.39756C10.1966 6.80123 11.3085 6.0006 12.978 5.98416C14.3555 5.97101 15.733 5.96279 17.1088 5.93155C18.125 5.90853 19.0373 5.55014 19.8588 4.96652C20.8799 4.24151 21.8928 3.505 22.9057 2.77012C24.2585 1.78865 25.7135 1.77879 27.0778 2.75533C27.962 3.38827 28.8644 4.00149 29.7172 4.67553C30.9199 5.62576 32.2825 6.00717 33.7936 5.98745C34.884 5.97265 35.9728 5.97923 37.0633 5.98745C38.6618 5.99895 39.8034 6.81274 40.3181 8.317C40.648 9.28533 40.9928 10.2504 41.2666 11.2351C41.6576 12.6457 42.362 13.8294 43.5498 14.7106C43.5828 15.8844 43.6207 17.0598 43.6405 18.2337C43.6422 18.3553 43.5366 18.477 43.4805 18.5986C43.4178 18.4704 43.3502 18.3438 43.2941 18.2139C39.4586 9.43657 30.3755 4.60155 20.9773 6.55627C7.80626 9.30177 1.14982 23.8101 7.63965 35.5434C9.01053 38.0209 10.8879 40.0611 13.1001 41.812C12.9401 41.7972 12.7751 41.8038 12.6217 41.7643C11.3481 41.429 10.0779 41.0837 8.80762 40.7418V40.7401Z" fill="white"/>
<path d="M43.4788 18.6019C43.5349 18.4803 43.6405 18.357 43.6389 18.237C43.6191 17.0615 43.5811 15.8877 43.5481 14.7139C44.5495 15.4307 45.5624 16.131 46.5489 16.8675C47.8257 17.8194 48.2514 19.1609 47.7746 20.675C47.3952 21.885 46.9943 23.0901 46.6017 24.2951C46.2272 25.4459 46.2734 26.5935 46.6446 27.7344C47.019 28.8819 47.4001 30.0278 47.7631 31.1786C48.2514 32.7273 47.8175 34.0622 46.5093 35.0289C45.4848 35.7851 44.4505 36.5266 43.4228 37.2762C42.5154 37.9388 41.8836 38.8035 41.5289 39.8639C41.1198 41.087 40.7272 42.3151 40.3148 43.5366C39.8034 45.054 38.6271 45.8892 37.0105 45.8958C35.7765 45.9007 34.5426 45.904 33.3086 45.8958C32.0944 45.8875 31.0089 46.2591 30.0307 46.9676C29.0326 47.691 28.0412 48.4209 27.0349 49.1312C25.6723 50.0929 24.2816 50.0748 22.9239 49.0983C21.9242 48.3782 20.9261 47.6565 19.9248 46.9381C18.9812 46.2607 17.9303 45.8974 16.7607 45.899C15.4855 45.899 14.2103 45.9023 12.9351 45.8958C11.3646 45.8875 10.1818 45.0392 9.6869 43.5481C9.37676 42.6176 9.09796 41.6772 8.80432 40.7401C10.0762 41.0821 11.3465 41.4273 12.6184 41.7627C12.7718 41.8038 12.9368 41.7956 13.0951 41.812C13.2172 41.8877 13.3409 41.9567 13.4597 42.0389C17.9947 45.1855 22.9849 46.315 28.4437 45.4239C37.5499 43.9361 44.6897 35.7259 44.8662 26.5392C44.919 23.8003 44.4406 21.1617 43.4755 18.6036L43.4788 18.6019Z" fill="white"/>
<path d="M7.92008 44.7778C8.67563 46.144 9.63739 47.1666 11.0578 47.6055C11.7704 47.8258 12.5359 47.9278 13.2848 47.9689C14.372 48.028 15.4657 48.0264 16.5528 47.9721C17.5426 47.9228 18.3526 48.2861 19.1148 48.8451C19.6427 49.2331 20.1475 49.6556 20.7001 50.0058C21.0729 50.2409 21.0927 50.4513 20.8783 50.7998C19.6806 52.7529 18.4994 54.7159 17.3067 56.6722C16.5726 57.8773 15.8435 59.0873 15.0879 60.2792C14.4891 61.2245 13.5438 61.1752 13.0308 60.197C12.2026 58.6204 11.3613 57.0487 10.548 55.4639C10.2923 54.9657 9.93928 54.7454 9.37675 54.7504C7.62974 54.7668 5.88108 54.7602 4.13408 54.7537C3.2779 54.7504 2.85888 54.5104 2.75825 53.8363C2.71041 53.5174 2.84898 53.1195 3.02055 52.8285C3.98561 51.1895 4.98531 49.5701 5.97677 47.9458C6.60529 46.9167 7.23877 45.8908 7.92173 44.7795L7.92008 44.7778Z" fill="white"/>
<path d="M42.0898 44.7778C43.1868 46.5813 44.2393 48.3108 45.2918 50.0387C45.856 50.9642 46.3955 51.9062 46.9959 52.8088C47.7597 53.958 46.958 54.7767 45.8758 54.7619C44.1701 54.7389 42.4626 54.7767 40.7569 54.7471C40.097 54.7356 39.6978 54.969 39.3992 55.5658C38.6123 57.1408 37.7693 58.6878 36.9478 60.2447C36.4677 61.1521 35.4977 61.213 34.9566 60.3351C33.2063 57.4959 31.4808 54.6435 29.7453 51.7961C29.5209 51.4295 29.2669 51.076 29.0887 50.6897C29.0194 50.5401 29.0508 50.2162 29.1597 50.1324C29.9037 49.557 30.6411 48.9536 31.4593 48.4999C31.9905 48.2056 32.6471 48.0478 33.2591 48.0067C34.7108 47.908 36.1708 47.9442 37.6241 47.8735C39.5856 47.7781 40.9268 46.698 41.8985 45.077C41.9397 45.0096 41.9842 44.9439 42.0882 44.7795L42.0898 44.7778Z" fill="white"/>
<path d="M43.4788 18.602C44.4455 21.16 44.9223 23.797 44.8695 26.5376C44.693 35.7259 37.5532 43.9361 28.447 45.4223C22.9882 46.3134 17.9996 45.1856 13.463 42.0373C13.3459 41.9567 13.2205 41.886 13.0984 41.8104C10.8862 40.0596 9.00888 38.021 7.638 35.5418C1.14982 23.8102 7.80626 9.30182 20.974 6.56126C30.3722 4.60489 39.4569 9.44156 43.2908 18.2189C43.3485 18.3488 43.4145 18.4754 43.4772 18.6036L43.4788 18.602ZM42.7315 24.3593C42.6507 23.7313 42.6128 23.0934 42.4857 22.4753C40.5193 12.9038 31.4527 6.77005 21.8038 8.46995C13.9876 9.84763 7.86565 16.4385 7.25857 24.3182C6.75542 30.8531 9.19364 36.1665 14.3934 40.1861C15.6554 41.1627 17.0329 41.9748 18.5819 42.4483C18.7651 42.5338 18.9416 42.6406 19.1329 42.6998C26.4707 44.9587 32.8929 43.41 38.1636 37.8484C41.7137 34.1033 43.167 29.5149 42.7332 24.3593H42.7315Z" fill="#1E8DEE"/>
<path d="M18.5803 42.4499C17.0329 41.9748 15.6554 41.1627 14.3918 40.1878C9.19199 36.1682 6.75377 30.8547 7.25693 24.3198C7.86401 16.4401 13.986 9.84926 21.8021 8.47158C31.4511 6.77003 40.5177 12.9055 42.4841 22.4769C42.6111 23.095 42.6507 23.7329 42.7299 24.3609C42.4907 24.9528 42.2399 25.5397 42.0123 26.1364C40.9218 28.9954 39.3992 31.6061 37.3519 33.8814C34.8345 36.6778 31.8272 38.8134 28.3299 40.2437C25.5023 41.3994 22.5775 42.1162 19.5124 42.223C19.1989 42.2346 18.8904 42.3727 18.5803 42.4516V42.4499ZM37.5202 23.7658C37.5681 22.0593 36.5337 20.7014 35.0292 20.4301C33.594 20.172 32.1439 19.9961 30.6972 19.8169C30.2122 19.7577 29.8954 19.613 29.6793 19.1247C29.1415 17.9082 28.5262 16.7278 27.9537 15.5277C27.3599 14.2831 26.3833 13.5713 24.9992 13.5713C23.6151 13.5713 22.6418 14.2897 22.0479 15.5326C21.4474 16.787 20.8486 18.0446 20.2118 19.2809C20.1029 19.493 19.8307 19.7182 19.6047 19.7544C18.2867 19.9681 16.962 20.149 15.634 20.3002C14.2054 20.463 13.1215 21.0877 12.6514 22.4917C12.1928 23.8611 12.6068 25.0185 13.6494 25.9918C14.6409 26.9173 15.6059 27.8692 16.5957 28.7964C16.8415 29.0266 16.9455 29.2321 16.8712 29.5921C16.6056 30.8958 16.4011 32.2127 16.147 33.518C15.8748 34.9237 16.1536 36.1419 17.3562 37.0148C18.5325 37.8697 19.7598 37.799 21.0037 37.1102C22.1881 36.4542 23.3957 35.841 24.5802 35.1867C24.8854 35.0174 25.118 35.0207 25.4231 35.1867C26.6983 35.8887 27.9801 36.5808 29.2751 37.2483C30.4118 37.8352 31.5467 37.7842 32.5976 37.0461C33.6451 36.3096 34.1037 35.2722 33.9074 34.003C33.6897 32.6073 33.4356 31.2164 33.1618 29.8305C33.0661 29.3423 33.1453 29.0085 33.5379 28.6583C34.536 27.7706 35.4796 26.8253 36.4446 25.903C37.1111 25.2668 37.5153 24.5089 37.5202 23.7641V23.7658Z" fill="white"/>
<path d="M18.5803 42.4499C18.8904 42.371 19.1989 42.2313 19.5124 42.2214C22.5791 42.1162 25.5023 41.3977 28.3299 40.242C31.8272 38.8117 34.8362 36.6762 37.3519 33.8797C39.3992 31.6044 40.9218 28.9937 42.0123 26.1348C42.2399 25.538 42.4907 24.9511 42.7299 24.3593C43.1637 29.5149 41.7104 34.1033 38.1603 37.8483C32.8896 43.41 26.4674 44.9587 19.1296 42.6998C18.9383 42.6406 18.7618 42.5338 18.5786 42.4483L18.5803 42.4499Z" fill="white"/>
<path d="M37.5202 23.7657C37.5153 24.5121 37.1111 25.2683 36.4446 25.9046C35.4796 26.8269 34.5343 27.7722 33.5379 28.6599C33.1436 29.0101 33.0644 29.3438 33.1618 29.8321C33.4356 31.218 33.6913 32.6088 33.9074 34.0046C34.1054 35.2738 33.6468 36.3111 32.5976 37.0477C31.5467 37.7858 30.4118 37.8368 29.2751 37.2499C27.9818 36.5824 26.6983 35.8919 25.4231 35.1883C25.1196 35.0206 24.8854 35.0189 24.5802 35.1883C23.3957 35.8442 22.1881 36.4558 21.0037 37.1118C19.7598 37.8006 18.5325 37.8713 17.3562 37.0164C16.1553 36.1435 15.8748 34.9252 16.147 33.5196C16.3994 32.2126 16.604 30.8974 16.8712 29.5937C16.9455 29.2337 16.8399 29.0282 16.5957 28.798C15.6059 27.8708 14.6409 26.9189 13.6494 25.9934C12.6068 25.0201 12.1928 23.8644 12.6514 22.4933C13.1215 21.0876 14.2054 20.4629 15.634 20.3018C16.962 20.1505 18.285 19.9697 19.6047 19.756C19.8307 19.7198 20.1029 19.4929 20.2118 19.2825C20.8469 18.0446 21.4458 16.7886 22.0479 15.5342C22.6434 14.293 23.6168 13.5745 24.9992 13.5729C26.3816 13.5729 27.3582 14.2847 27.9537 15.5292C28.5262 16.7294 29.1415 17.9114 29.6793 19.1263C29.8954 19.6162 30.2138 19.7593 30.6972 19.8185C32.1456 19.9977 33.5956 20.1736 35.0292 20.4317C36.5337 20.7029 37.5664 22.0592 37.5202 23.7674V23.7657ZM18.0887 34.3367C18.0623 35.3478 18.9713 35.8705 19.867 35.402C21.2676 34.6721 22.6715 33.9471 24.0424 33.1612C24.7055 32.7815 25.2714 32.7634 25.9378 33.1431C27.2922 33.9142 28.6829 34.6211 30.0538 35.3642C30.5223 35.619 30.9825 35.7029 31.4412 35.3757C31.8998 35.0485 31.974 34.5882 31.8767 34.0621C31.583 32.4724 31.3273 30.8744 31.0007 29.2912C30.872 28.6682 31.032 28.2325 31.4791 27.8149C32.6652 26.7085 33.8266 25.5758 35.0028 24.4595C35.369 24.1126 35.6049 23.723 35.4466 23.2051C35.2849 22.6757 34.9038 22.4324 34.3545 22.3617C32.7048 22.148 31.0601 21.8866 29.4088 21.6861C28.8264 21.6154 28.4833 21.3326 28.2441 20.8279C27.5496 19.368 26.8303 17.9196 26.1358 16.4598C25.8983 15.9616 25.5881 15.6016 24.981 15.6082C24.402 15.6147 24.1051 15.9616 23.8757 16.4384C23.1697 17.9147 22.4422 19.3812 21.7378 20.8608C21.5052 21.349 21.167 21.6104 20.6143 21.6811C18.963 21.8883 17.3183 22.1447 15.6686 22.3585C15.1242 22.4291 14.7316 22.6511 14.5584 23.1805C14.3819 23.7263 14.6409 24.1208 15.0236 24.4809C16.0398 25.4377 16.9983 26.4619 18.0689 27.3546C18.9383 28.078 19.1725 28.8375 18.8987 29.9324C18.5341 31.3988 18.3411 32.908 18.0854 34.335L18.0887 34.3367Z" fill="#1E8DEE"/>
<path d="M18.0887 34.3367C18.3444 32.9097 18.5374 31.4005 18.902 29.9341C19.1742 28.8375 18.9416 28.0796 18.0722 27.3563C17.0016 26.4652 16.0431 25.441 15.0269 24.4825C14.6442 24.1209 14.3852 23.7279 14.5617 23.1821C14.7332 22.6528 15.1275 22.4308 15.6719 22.3601C17.3216 22.1464 18.9663 21.8899 20.6176 21.6828C21.1703 21.6137 21.5085 21.3507 21.7411 20.8624C22.4438 19.3845 23.173 17.918 23.879 16.4401C24.1067 15.9633 24.4053 15.6164 24.9843 15.6098C25.5914 15.6033 25.9015 15.9616 26.1391 16.4614C26.8353 17.9213 27.5529 19.3697 28.2474 20.8296C28.4882 21.3343 28.8297 21.617 29.4121 21.6877C31.0634 21.8899 32.7081 22.1497 34.3578 22.3634C34.9071 22.4341 35.2882 22.6774 35.4499 23.2068C35.6082 23.7247 35.3723 24.1126 35.0061 24.4612C33.8299 25.5774 32.6685 26.7102 31.4824 27.8166C31.0353 28.2342 30.8753 28.6715 31.004 29.2929C31.3306 30.8761 31.5863 32.4741 31.88 34.0638C31.9773 34.5899 31.9031 35.0502 31.4445 35.3774C30.9858 35.7045 30.5256 35.6207 30.0571 35.3659C28.6862 34.6228 27.2955 33.9159 25.9411 33.1448C25.2747 32.765 24.7088 32.7831 24.0457 33.1629C22.6764 33.9471 21.2709 34.6721 19.8703 35.4037C18.9729 35.8722 18.0656 35.3494 18.092 34.3384L18.0887 34.3367Z" fill="white"/>
</g>
<defs>
<clipPath id="clip0_1_2869">
<rect width="50" height="63" fill="white"/>
</clipPath>
</defs>
</svg>
