<?xml version="1.0" encoding="UTF-8"?><svg id="Capa_2" xmlns="http://www.w3.org/2000/svg" viewBox="0 0 2558.78 613"><defs><style>.cls-1{fill:#0166fe;}.cls-1,.cls-2,.cls-3{stroke-width:0px;}.cls-2{fill:#0267fe;}.cls-3{fill:#0368fe;}</style></defs><g id="Capa_1-2"><path class="cls-1" d="m532.79,0c9.02,2.62,18.41,4.36,26.98,8.02,37.15,15.85,59.08,55.24,53.81,95.49-5.3,40.44-37.35,72.72-77.83,78.38-54.32,7.61-102.61-32.83-104.65-87.63-1.64-43.98,29.94-83.79,73.25-92.39,2.19-.43,4.3-1.24,6.45-1.87,7.33,0,14.66,0,21.99,0Z"/><path class="cls-1" d="m102.96,0c6.33,1.67,12.79,2.97,18.97,5.09,38.92,13.33,63.91,51.2,61.47,91.74-2.71,45.03-37.42,79.51-78.2,85.05C53.61,188.88,7.79,153.97.99,102.42c-.12-.89-.65-1.72-.99-2.58,0-5.66,0-11.31,0-16.97.36-1.02.89-2.01,1.06-3.06C6.89,43.83,26.73,19,60.65,5.61,66.86,3.16,73.52,1.84,79.97,0c7.66,0,15.33,0,22.99,0Z"/><path class="cls-1" d="m317.88,0c6.19,1.6,12.5,2.83,18.55,4.85,40.27,13.42,66.17,52.95,62.23,94.65-4.03,42.58-36.14,76.36-78.33,82.4-49.07,7.03-95.5-26.64-103.3-74.88-8.15-50.46,25.07-97.25,75.11-105.82,1.93-.33,3.83-.79,5.74-1.19,6.66,0,13.33,0,19.99,0Z"/><path class="cls-1" d="m1449.22,381.34h-153.76c2.46,15.15,8.8,27.63,20.58,37.12,19.6,15.78,50.14,15.51,68.82-.6,1.38-1.19,3.06-2.34,3.82-3.89,3-6.13,8.06-6.53,14.07-6.35,12.48.38,24.98.12,37.47.12h5.44c-4.53,14.07-12.06,25.46-21.76,35.41-19.51,20.02-43.74,29.23-71.36,29.49-37.41.35-68.38-13.14-89.79-44.65-31.69-46.64-21.62-116.01,21.79-149.07,56.75-43.21,149.44-21.27,165.59,62.62,2.38,12.36,2.18,29.82-.89,39.81Zm-153.57-34.63h104.56c-1.91-27.18-24.36-46.65-52.57-46.26-26.67.37-47.95,19.95-51.98,46.26Z"/><path class="cls-1" d="m1126.44,407.73c-5.27,15.55-13.65,27.77-24.65,38.2-19.17,18.19-42.41,26.5-68.52,26.69-40.12.3-72.38-15.04-93.19-50.15-15.65-26.39-18.17-55.24-11.67-84.88,5.68-25.9,19.13-47.05,41.29-61.93,57.18-38.4,142.76-15.85,160.33,61.96,3.23,14.3,3.35,28.68.27,43.56h-154.07c2.03,13.83,7.54,25.18,17.24,34.43,20.51,19.56,56.69,19.6,74.84-.86,5.24-5.9,10.14-7.45,17.29-7.16,11.64.46,23.31.12,34.97.12h5.85Zm-150.05-61.06h104.93c-3.5-27.86-23.86-46.12-50.71-46.28-30.13-.18-49.73,21.32-54.22,46.28Z"/><path class="cls-2" d="m2511.48,447.77c-1.54,1.11-2.41,1.57-3.07,2.23-17.94,18.37-40.29,24.29-65.13,22.69-18.05-1.16-34.42-6.79-48.3-18.92-30.81-26.92-25.74-87.15,21.56-105.35,14.36-5.53,29.25-7.51,44.48-7.65,13.65-.12,27.31-.03,40.96-.03h5.27c3.15-19.02-8.1-37.14-25.43-41.23-18.82-4.44-41.11,2.1-47.4,24.82h-50.56c3.03-20.3,12.12-36.74,28.33-48.9,20.38-15.3,43.86-19.18,68.57-17.28,21.02,1.62,39.87,8.81,55.19,23.76,14.91,14.56,22.43,32.56,22.61,53.18.37,43.74.14,87.48.14,131.22,0,.64-.18,1.28-.38,2.62-4.29,0-8.56,0-12.82,0-8.16,0-16.32-.18-24.47.08-3.8.12-5.7-.71-6.19-4.9-.61-5.21-2.08-10.33-3.36-16.34Zm-3.99-68.19c-16.9,0-33.51-.23-50.1.15-4.87.11-9.89,1.46-14.52,3.12-11.03,3.95-16.32,11.8-16.3,23.04.02,11.5,5.96,19.94,16.82,23.91,35.03,12.81,67.91-12.7,64.1-50.22Z"/><path class="cls-1" d="m215.83,306.28c.08-50.43,41.18-91.4,91.6-91.32,50.7.09,91.62,41.25,91.46,91.99-.16,50.33-41.65,91.46-91.88,91.08-50.67-.38-91.26-41.23-91.18-91.75Z"/><path class="cls-1" d="m215.83,521.21c.12-50.51,41.04-91.12,91.72-91.03,50.84.09,91.54,41.05,91.34,91.93-.2,50.37-41.42,91.1-91.99,90.89-50.51-.21-91.19-41.21-91.07-91.79Z"/><path class="cls-1" d="m1703.01,472.77c-53.25-.17-95.74-39.21-100.81-96.63-2.81-31.86,4.55-60.98,26.32-85.1,23.95-26.52,54.9-36.13,89.76-33,34.23,3.07,61.39,18.84,79.37,48.64,27.2,45.08,18,107.93-20.63,141.35-20.02,17.32-43.83,24.49-74,24.73Zm-51.83-107.83c1.68,8.08,2.53,16.45,5.21,24.18,6.77,19.57,20.51,32.24,41.11,35.81,20.37,3.53,38.16-2.42,51.21-18.86,13.79-17.38,16.17-37.54,11.37-58.6-8.69-38.14-51.3-55.59-82.9-33.96-17.87,12.24-24.43,30.34-26,51.43Z"/><path class="cls-2" d="m1843.7,261.72h46.32c1.47,6.7,2.95,13.39,4.55,20.65,1.46-.92,2.6-1.31,3.27-2.1,30.26-35.72,110.88-33.78,131.74,32.65,3.09,9.83,4.52,20.54,4.65,30.87.53,40.26.23,80.53.23,120.79,0,1.12-.1,2.25-.17,3.63h-50.63c0-2.1,0-4.05,0-6.01,0-36.6.09-73.21-.09-109.81-.03-5.93-.44-12.07-2.02-17.74-5.73-20.5-23.92-31.77-47.56-30.11-20.21,1.42-35.88,15.86-38.86,35.97-.56,3.76-.8,7.61-.81,11.42-.06,36.94-.04,73.87-.04,110.81v5.54h-50.59v-206.55Z"/><path class="cls-2" d="m809.64,235.23h-84.94v-50.47h222.71v50.31h-84.82v232.98h-52.95v-232.83Z"/><path class="cls-1" d="m2307.44,391.53h50.91c-7.54,31.04-22.42,56.39-51.65,71.07-39.67,19.92-92.68,10.64-122.99-21.61-23.11-24.59-30.75-54.56-28.01-87.48,1.97-23.67,10.2-45.04,26.5-62.66,24.68-26.69,55.88-36.04,91.36-32.64,47.21,4.53,74.77,38.04,84.19,76.26.12.47.09.98.16,1.79-1.31.1-2.57.29-3.83.29-14.32.02-28.65.1-42.97-.11-1.66-.02-4.25-1.37-4.81-2.74-15.59-38.33-68.37-37.83-89.52-6.43-15.82,23.49-14.49,58.74,3.5,80.21,14.99,17.89,42.81,23.76,63.69,13.37,10.16-5.05,16.86-13.29,21.21-23.59.77-1.83,1.47-3.7,2.27-5.74Z"/><path class="cls-2" d="m1549.32,310.28v158.3h-50.89v-158.11h-34.44v-48.64h34.42c0-8.71-.16-16.97.05-25.21.16-6.13.17-12.38,1.36-18.35,4.03-20.18,17.73-34.4,38.43-36.43,18.25-1.79,36.82-.37,55.52-.37v43.66c-2.91,0-5.83,0-8.75,0-7.33.02-14.67-.2-21.99.14-8.41.39-13.51,5.8-13.68,14.11-.14,7.15-.03,14.3-.03,22.09h44.46v48.81h-44.48Z"/><path class="cls-2" d="m1163.18,184.71h50.27v283.53h-50.27V184.71Z"/><path class="cls-2" d="m2124.12,261.96v206.24h-50.28v-206.24h50.28Z"/><path class="cls-3" d="m1686.77,233.23c12.92-19.6,25.13-38.19,37.49-56.68.75-1.13,2.63-2.12,4-2.13,16.29-.15,32.58-.09,49.6-.09-.94,1.43-1.49,2.5-2.25,3.4-14.42,17.41-28.79,34.87-43.42,52.1-1.54,1.82-4.63,3.19-7.04,3.26-12.42.32-24.85.15-38.37.15Z"/><path class="cls-2" d="m2098.61,231.84c-16.66-.06-30.11-13.7-29.91-30.33.2-16.67,13.72-29.9,30.47-29.82,16.63.08,30.07,13.69,29.96,30.34-.11,16.53-13.77,29.88-30.51,29.81Z"/></g></svg>