<?xml version="1.0" encoding="UTF-8"?><svg id="Capa_2" xmlns="http://www.w3.org/2000/svg" viewBox="0 0 1255.79 197.27"><defs><style>.cls-1{fill:#52a118;}.cls-1,.cls-2,.cls-3{stroke-width:0px;}.cls-2{fill:#52a218;}.cls-3{fill:#478b14;}</style></defs><g id="Capa_1-2"><path class="cls-3" d="m1255.79,17.96c-5.08,5.31-9.04,11.63-17.42,10.56-7.04-.89-12.61-7.32-12.53-14.41.07-6.96,5.71-13.23,12.65-14.01,8.48-.95,12.23,5.45,17.31,10.86v7Zm-3.48-3.93c-.31-14.85-22.48-15.68-24.16-1.1-1.94,16.88,24.5,17.8,24.16,1.1Z"/><path class="cls-1" d="m187.51,65.99c-13.02,0-26.49.98-39.45.12-14.17-.94-21.41-9.99-33.71-15.2-24.9-10.56-54.42,4.07-63.78,28.73-8.91,23.49,1.01,51.76,22.75,64.37,22.61,13.12,53.62,5.32,65.45-18.74h-53.07v-37.77h106.65c14.8,85.15-89.9,141.35-155.86,89.4C-31.87,123.05,1.81,9.64,87.82,1.23c42.99-4.2,87.23,22.47,99.7,64.77Z"/><path class="cls-2" d="m1101.01,193.71h-45.89V4.71c6.91,0,13.83,0,20.74.03,5.23.02,14.04-1.8,18.89.24,9.63,4.05,18.27,24.68,23.83,33.11,7.94,12.02,15.89,24.03,23.84,36.04,6.21,9.38,13.66,27.55,23.41,33.41V5.14h45.88v188.54c-10.03.46-28.67,3.71-37.98-.03-10.12-4.05-18.9-24.77-24.73-33.51-8-11.98-16.02-23.95-24.04-35.91-6.57-9.8-13.94-27.33-23.95-33.8v103.28Z"/><path class="cls-2" d="m445.83,197.27c-87.75-.47-130.76-114.18-64-172.19,69.34-60.25,177.22,3.88,159.93,93.16-8.86,45.74-49.27,79.28-95.93,79.02Zm-49.08-99.66c-.07,28.85,22.31,52.65,49.68,52.82,27.6.17,49.17-22.6,49.36-52.12.18-27.69-21.77-50.28-48.86-50.28-27.91,0-50.1,21.93-50.17,49.58Z"/><path class="cls-2" d="m947.65,197.27c-87.77-.53-130.75-114.46-63.77-172.32,69.28-59.84,176.85,3.84,159.79,92.96-8.79,45.9-49.17,79.64-96.02,79.35Zm-48.98-99.48c-.03,28.82,22.55,52.68,49.82,52.63,27.7-.05,49.07-22.75,49.21-52.28.13-27.4-21.73-49.95-48.56-50.1-28.12-.16-50.44,21.85-50.46,49.76Z"/><path class="cls-2" d="m251.77,193.61h-45.87V5.23c24.15-3.54,52.04-1.3,76.44-.15,19.11.89,36.51,7.44,47.81,23.57,12.87,18.39,14.83,42.71,7.6,63.68-6.77,19.66-20.65,28.58-38.58,36.94,15.24,21.4,30.26,42.47,45.77,64.24h-57.19c-11.43-19.21-23.13-38.86-34.83-58.51-.38.1-.77.2-1.15.29v58.31Zm.3-102.12c17.03,2,41.87.42,42.68-21.48.9-24.43-25.04-23.2-42.68-22.87v44.35Z"/><path class="cls-2" d="m555.7,5.01h46.09c1.62,30.11.33,60.56.39,90.72.04,19.15-5.68,58.26,23.4,57.56,28.48-.68,23.06-38.66,23.1-57.96.07-30.05,0-60.11,0-90.16h45.89c1.4,23.15.29,46.66.29,69.86,0,21.65,2.46,44.95-1.58,66.3-6.73,35.56-36.13,56.65-71.78,55.59-34.94-1.04-59.58-23.27-64.66-57.54-3.37-22.75-1.17-47.03-1.17-69.99,0-21.46,0-42.92,0-64.39Z"/><path class="cls-2" d="m708.74,5.1c14.95-1.44,30.51-.38,45.52-.33,13.57.04,27.76-.94,41.2,1.18,24.87,3.92,43.57,22.86,48.07,47.53,3.98,21.85-1.17,45.99-17.31,61.86-19.52,19.18-45.99,17.47-71.4,17.47v60.74h-46.07V5.1Zm46.89,86.64c17.93.68,43-.11,42.18-23.85-.78-22.6-25.6-20.12-42.18-21.75v45.6Z"/><path class="cls-3" d="m1244.63,22.18c-1.29-3.3-1.69-7.83-7.17-5.58-.31,1.61-.64,3.34-1,5.2-2.62-2.11-3.11-6.77-1.54-15.44,4.42.24,9.15-.8,11.33,3.87.75,1.61-.33,10.92-1.63,11.96Zm-7.06-7.5c7.32-3.22,7.32-4.44,0-6.84v6.84Z"/></g></svg>