<?xml version="1.0" encoding="utf-8"?>
<!-- Generator: Adobe Illustrator 25.1.0, SVG Export Plug-In . SVG Version: 6.00 Build 0)  -->
<svg version="1.1" id="Capa_1" xmlns="http://www.w3.org/2000/svg" xmlns:xlink="http://www.w3.org/1999/xlink" x="0px" y="0px"
	 viewBox="0 0 523.45 142.16" style="enable-background:new 0 0 523.45 142.16;" xml:space="preserve">
<style type="text/css">
	.st0{fill:#FFFFFF;}
</style>
<g>
	<path class="st0" d="M71.39,58.13h18.46c0,0,8.34-0.21,14.35-2.83c2.93-1.28,6.46-3.14,10.45-5.82c0.43-0.92,0.07-1.79-0.45-2.12
		c-0.64-0.36-1.55-0.46-1.83-0.49c-17.95-1.77-31.57,1.2-34.64,2.22c-3.43,1.14-5.25,2.3-5.76,2.67c-2.54,1.86-2.91,3.67-2.24,5.09
		C70.66,58.13,71.39,58.13,71.39,58.13z"/>
	<path class="st0" d="M205.9,7.68c-17.93-13.05-43.27-9.06-56.32,8.87l-3.89,5.35c-0.75,0.9-1.14,1.45-1.14,1.45
		c-0.33,0.5-0.65,0.97-0.97,1.45l-4.38,6.02c-0.41,0.57-0.81,1.14-1.19,1.72c-1.21,1.57-2.42,3.09-3.67,4.59
		c-12.52,15.17-23.43,22-30.47,25.06c-5.27,2.29-12.58,2.48-12.58,2.48H50.17c-22.9-0.49-17.73,16.67-8.21,17.86
		c3.71,0.88,6.3,1.04,7.95,1.81c3.99,1.85,2.01,4.28,1.75,4.66c-0.68,1.01-2.82,1.46-4.61,1.67c-1.49,0.17-14.77,1.43-22.6,1.61
		c-15.95,0.38-23.4,5.16-24.34,10.2c-1.08,5.81,6.5,11.97,19.69,12.14l45.36,1.29c0,0,2.3-0.05,4.81,0.18
		c9.78,0.52,8.97,9.32,4.15,11.27c-0.89,0.47-1.86,0.91-2.81,1.36c-2.2,1.04-4.28,2.01-4.97,3.81c-0.76,1.99-1.55,8.56,8.13,9.54
		c0,0,37.34,1.38,59.05-6.04c26.11-8.62,46.24-27.17,59.92-44.14C195.72,89.05,214.78,64,214.78,64
		C227.82,46.07,223.83,20.73,205.9,7.68z M165.41,79.95c-1.7,1.59-5.76,2.43-9.27,2.43c-0.83,0-1.63-0.05-2.36-0.14
		c-8.96-1.09-14.24-6.67-14.84-15.71c-0.31-4.19,1.66-9.58,3.58-11.4c0.99-0.95,1.85-0.91,2.39-0.7c1.61,0.62,2.15,3.36,2.32,5.57
		c1.53,9.25,7,15.33,15.41,17.12c0.62,0.1,1.18,0.16,1.64,0.21c1.01,0.1,1.74,0.18,1.98,0.88C166.5,78.93,165.87,79.52,165.41,79.95
		z M165.76,59.13c-3.06,0-5.53-2.48-5.53-5.53c0-3.06,2.48-5.53,5.53-5.53c3.06,0,5.53,2.48,5.53,5.53
		C171.29,56.65,168.81,59.13,165.76,59.13z M199.81,59.13c-3.06,0-5.53-2.48-5.53-5.53c0-3.06,2.48-5.53,5.53-5.53
		c3.06,0,5.53,2.48,5.53,5.53C205.34,56.65,202.86,59.13,199.81,59.13z"/>
	<g>
		<path class="st0" d="M230.6,130.22V87.3h13.78v5.87h0.17c2.84-4.74,6.99-7.11,12.45-7.11c6.35,0,10.55,2.32,12.61,6.95
			c3.51-4.63,8.02-6.95,13.53-6.95c6.13,0,10.39,2.07,12.78,6.2c1.67,2.81,2.51,6.92,2.51,12.32v25.64h-14.2V105
			c0-4.91-1.98-7.36-5.93-7.36c-2.79,0-4.65,1.05-5.6,3.14c-0.72,1.6-1.09,4.41-1.09,8.44v21.01h-14.2v-24.4
			c0-5.46-1.78-8.19-5.35-8.19c-2.62,0-4.48,0.87-5.6,2.61c-1.11,1.74-1.67,4.76-1.67,9.06v20.92H230.6z"/>
		<path class="st0" d="M350.46,112.19h-31.82c0.11,2.98,1.02,5.35,2.71,7.11c1.7,1.77,4.02,2.65,6.97,2.65
			c4.06,0,6.77-1.57,8.1-4.71h13.28c-1.23,4.69-3.93,8.3-8.1,10.83c-3.79,2.26-8.27,3.39-13.45,3.39c-7.18,0-12.89-2.01-17.12-6.04
			c-4.4-4.08-6.6-9.68-6.6-16.79c0-6.51,2.31-11.91,6.93-16.21c4.45-4.24,9.94-6.37,16.46-6.37c7.52,0,13.31,2.54,17.37,7.61
			C349.04,98.41,350.8,104.58,350.46,112.19z M318.64,104.34h17.62c-0.11-2.43-0.96-4.49-2.55-6.2c-1.59-1.71-3.55-2.56-5.89-2.56
			c-2.45,0-4.48,0.8-6.1,2.4C320.11,99.57,319.08,101.69,318.64,104.34z"/>
		<path class="st0" d="M356.64,130.22V71.17h14.2v59.05H356.64z"/>
		<path class="st0" d="M377.36,108.8c0-6.5,2.13-11.92,6.39-16.25c4.26-4.33,9.73-6.49,16.41-6.49c6.68,0,12.17,2.16,16.45,6.49
			c4.29,4.33,6.43,9.75,6.43,16.25c0,6.51-2.14,11.91-6.43,16.21c-4.29,4.3-9.77,6.45-16.45,6.45c-6.68,0-12.15-2.15-16.41-6.45
			C379.49,120.71,377.36,115.31,377.36,108.8z M391.56,108.8c0,3.25,0.61,5.93,1.84,8.02c1.5,2.59,3.76,3.89,6.77,3.89
			s5.29-1.3,6.85-3.89c1.22-2.15,1.84-4.82,1.84-8.02c0-3.2-0.61-5.87-1.84-8.02c-1.56-2.65-3.84-3.97-6.85-3.97
			s-5.26,1.32-6.77,3.97C392.17,102.88,391.56,105.55,391.56,108.8z"/>
		<path class="st0" d="M429.06,130.22V87.3h13.78v5.87h0.17c1.28-2.15,3.2-3.87,5.76-5.17c2.56-1.3,5.18-1.94,7.85-1.94
			c10.41,0,15.62,5.54,15.62,16.62v27.54h-14.2v-20.76c0-4.24-0.22-6.95-0.67-8.1c-0.89-2.48-3.04-3.72-6.43-3.72
			c-2.51,0-4.46,0.94-5.85,2.81c-1.23,1.65-1.84,3.78-1.84,6.37v23.41H429.06z"/>
		<path class="st0" d="M480.27,130.22V87.3h13.78v5.87h0.17c1.28-2.15,3.2-3.87,5.76-5.17c2.56-1.3,5.18-1.94,7.85-1.94
			c10.41,0,15.62,5.54,15.62,16.62v27.54h-14.2v-20.76c0-4.24-0.22-6.95-0.67-8.1c-0.89-2.48-3.04-3.72-6.43-3.72
			c-2.51,0-4.46,0.94-5.85,2.81c-1.23,1.65-1.84,3.78-1.84,6.37v23.41H480.27z"/>
	</g>
</g>
</svg>
