<?xml version="1.0" encoding="UTF-8"?><svg id="Capa_2" xmlns="http://www.w3.org/2000/svg" viewBox="0 0 996.92 162.55"><defs><style>.cls-1{stroke-width:0px;}</style></defs><g id="Capa_1-2"><path class="cls-1" d="m40.59,50.75H0V3.88c3.32-.17,6.65-.49,9.97-.5,57.3-.16,114.59-.21,171.89-.48,14.42-.07,28.62.68,42.81,6.44,2.32-4.73,6-6.19,11.25-6.12,23.87.33,47.75.02,71.62.19,19.01.13,36.37,5.14,50.45,18.92,29.68-25.61,62.32-27.21,98.03-14.05,2.22-4.6,6.91-5.04,12.14-4.99,20.77.18,41.55.07,63.59.07,5.55,21.85,11,43.33,16.95,66.8,1.66-3.68,2.83-5.54,3.37-7.57,2.76-10.46,5.11-21.02,8.05-31.43,5.27-18.67,16.03-27.14,35.41-27.71,12.61-.37,25.24-.3,37.85.07,3.16.09,6.26,2.09,9.23,4.22,26.32-10.15,52.78-10.91,79.9,1.27,2.22-5.65,7.08-5.74,12.27-5.71,22.51.13,45.02.13,67.53.04,26.64-.11,48.83,8.32,63.32,31.91.31.51,1.09.74,2.86,1.89,1.68-4.41,3.49-8.53,4.84-12.79,4.22-13.26,13.51-20.07,27.22-20.67,10.19-.44,20.42-.09,31.6-.09,1.41,3.2,2.99,6.46,4.32,9.82,8.31,21.1,16.5,42.24,24.86,63.32,2.37,5.97,4.88,11.92,7.79,17.65,7.74,15.2,12.31,19.71,27.79,28.41.03,15.48-9.1,29.21-22.62,34-17.27,6.12-33.18-.2-49.68-20.08h-37.75c-2.48,7.1-4.9,14.05-7.46,21.38-2.86.25-5.5.69-8.14.69-45.7.04-91.41.04-137.11.01-4.66,0-9.97,1.23-10.85-5.84-27.1,12.14-53.24,12.16-80.23.56-2.22,4.63-6.28,5.52-11.3,5.4-13.92-.32-27.86-.11-43.26-.11v-52.92c-.89-.12-1.77-.24-2.66-.36-4.2,8.11-5.13,17.35-7.8,25.98-2.69,8.68-5.02,17.46-7.64,26.66h-41.65c-5.01-17.54-9.97-34.94-14.94-52.34-3.92,8.43-2.37,16.99-2.65,25.4-.29,8.72-.06,17.45-.06,27.59-6.45,0-11.8,0-17.14,0-9.55,0-19.11.26-28.64-.16-3.15-.14-6.22-2.02-11.6-3.9-32.89,12.84-66.15,11.02-95.55-14.7-1.13.29-1.94.27-2.41.66-17.9,14.59-38.97,18.38-61.36,18.13-19.78-.22-39.57-.03-59.35-.07-4.06,0-8.78,1.01-9.08-5.58-33.83,13.16-66.41,14.48-94.76-9.99-28.53-24.62-30.22-57.15-22.52-92h-10.82c-.49.65-1.22,1.17-1.22,1.69-.11,20.28-.41,40.57-.09,60.85.14,8.7,4.36,16.24,9.56,23.13,2.24,2.97,4.58,5.87,6.86,8.76-11.34,12.96-32.7,19.1-48.4,14.04-14.7-4.74-23.7-17.21-23.92-34.21-.27-20.64-.07-41.29-.07-61.94,0-3.7,0-7.39,0-12.82Zm513.23,47.16c-7.65,2.81-8.97-1.28-10.1-5.94-3.34-13.8-6.77-27.57-10.19-41.35-3.07-12.38-6.18-24.76-9.26-37.13h-55.42c-.59,5.01-1.12,9.45-1.68,14.14-45.46-26.73-71-24.5-108.96,9.12-.79-.56-1.81-.97-2.38-1.72-11.09-14.65-26.48-21.26-44.31-21.72-23.85-.62-47.73-.19-71.59-.13-.9,0-1.8.82-2.99,1.4-.39,4.16-.79,8.37-1.22,12.96-1.53-.61-2.61-.78-3.32-1.38-12.69-10.75-27.89-13.66-43.92-13.65-56.28.05-112.56.19-168.85.34-3.29,0-6.58.42-10.09.65v26.95c13.7.22,26.76.42,40.51.64,0,5.12,0,8.79,0,12.47,0,23.36-.13,46.71.07,70.07.1,11.65,4.41,21.35,15.91,26.1,11.75,4.85,22.37,1.66,31.28-4.26-3.68-10.33-9.12-19.31-9.76-28.61-1.65-23.92-1.19-47.98-1.5-71.99-.01-.94.63-1.88,1.15-3.31h35.73c.23,1.12.43,1.5.34,1.78-.55,1.58-1.09,3.17-1.8,4.68-7.28,15.59-8.79,31.96-5.72,48.63,3.58,19.48,12.7,36.1,30.58,45.88,27.77,15.2,55.42,14.08,82.08-3.46,2.16-1.42,4.34-2.8,7.2-4.64.53,5.25.95,9.46,1.42,14.05,2.93.24,5.25.58,7.57.58,19.1.04,38.21.22,57.31-.04,21.32-.3,40.33-6.27,54.47-23.31.37-.45,1.2-.52,2.4-1,12.42,17.16,30.01,25.93,50.99,27.85,21.23,1.94,40.19-4.62,57.33-18.57.67,5.75,1.16,10,1.67,14.37h32.94V56.3h8.84c8.61,30.97,17.17,61.77,25.61,92.1h26.71c1.21-4.08,2.32-7.61,3.3-11.16,6.86-24.78,13.64-49.58,20.56-74.34,2.13-7.61,2.29-7.57,11.6-5.03v90.43h32.49c.54-4.82,1-8.89,1.53-13.64,34.17,24.61,67.51,24.05,100.88-.06.64,5.5,1.14,9.73,1.61,13.76,19.53,1.9,130.22,1.11,137.62-.92,2.39-6.88,4.81-13.81,7.14-20.53h51.7c7.47,14.61,17.9,24.13,34.99,21.81,10.92-1.48,17.05-8.82,19.93-19.87-19.04-11.53-27.07-30.63-34.76-49.88-7.41-18.54-14.5-37.22-21.77-55.81-1.32-3.38-2.88-6.66-4.33-9.98-8.67,0-16.49-.28-24.28.07-9.09.42-15.07,5.05-18.16,13.81-3.71,10.52-7.97,20.86-12.12,31.23-.9,2.26-2.37,4.3-4.29,7.71-1.87-5.78-3.13-9.93-4.54-14.03-7.71-22.31-23.03-36.37-46.96-37.76-25.82-1.5-51.77-.81-77.66-.99-.87,0-1.74.89-2.79,1.46-.41,4.19-.81,8.37-1.33,13.82-15.37-12.52-31.66-18.69-50.63-18.67-18.93.01-35.22,6.19-50.39,18.45-.6-5.74-1.07-10.22-1.59-15.12-13.25,0-25.5-.51-37.69.14-12.33.65-19.93,7.9-23.1,19.61-2.3,8.49-4.37,17.05-6.46,25.6-3.21,13.11-6.35,26.24-9.53,39.4Z"/><path class="cls-1" d="m149.52,81.34c1.52-7.8,2.21-15.64,4.63-22.92,4.59-13.83,15.96-21.61,30.02-21.86,14.07-.25,25.86,7.16,30.97,20.64,6.1,16.09,6.15,32.57-.3,48.57-5.36,13.29-16.13,19.85-30.36,20.17-13.57.3-25.71-8.3-30.2-21.75-2.43-7.28-3.21-15.1-4.77-22.84Zm60.97-.04c-1.77-7.42-2.72-14.88-5.38-21.69-3.34-8.56-10.37-13.18-19.9-13.28-9.95-.1-17.12,4.62-20.85,13.53-5.86,14.02-5.83,28.39-.05,42.43,3.67,8.91,10.92,13.91,20.67,13.89,9.32-.02,16.59-4.72,19.97-13.27,2.69-6.79,3.71-14.23,5.53-21.62Z"/><path class="cls-1" d="m648.19,81c-.3-9.57,1.44-19.14,6.23-27.97,6.29-11.61,16.5-16.76,29.48-16.36,12.64.39,22.39,6.13,27.57,17.73,8.01,17.91,8,36.18-.25,54-5.33,11.52-15.41,17.23-27.85,17.46-12.38.23-22.52-4.96-28.71-16.12-4.88-8.78-6.7-18.34-6.47-28.72Zm8.54.08c1.79,7.2,2.8,14.66,5.54,21.43,3.58,8.85,10.94,13.87,20.79,13.72,9.41-.14,16.32-5.14,19.96-13.52,6.23-14.33,6.29-28.99-.14-43.31-3.79-8.44-10.62-13.05-20.16-13.04-9.97,0-17.14,4.84-20.62,13.83-2.52,6.51-3.55,13.59-5.37,20.9Z"/><path class="cls-1" d="m451.63,82.99c-1.3,6.1-2.18,13.89-4.68,21.12-4.82,13.93-17.27,22.23-31.15,21.91-13.76-.31-25.2-8.5-29.96-22.15-5.29-15.18-5.28-30.59.1-45.74,4.89-13.78,16.03-21.45,30.2-21.56,14.06-.11,25.36,7.51,30.72,20.98,1.24,3.11,2.02,6.44,2.62,9.74.83,4.63,1.3,9.32,2.14,15.71Zm-9.42-1.78c-1.77-7.35-2.71-14.82-5.42-21.6-3.39-8.47-10.37-13.25-19.93-13.3-9.94-.06-17.01,4.7-20.84,13.61-6.03,14.03-6.01,28.32-.05,42.36,3.77,8.87,10.86,13.98,20.66,13.93,9.82-.05,17.02-5.3,20.47-14.2,2.52-6.5,3.41-13.63,5.1-20.8Z"/><path class="cls-1" d="m272.96,41.44c10.46,0,19.38-.8,28.09.18,15.35,1.72,25.81,10.27,29.64,25.38,1.47,5.8,2.02,12.06,1.7,18.05-1.26,23.98-14.32,36.18-38.59,36.61-6.72.12-13.44.02-20.84.02V41.44Zm10.15,69.63c17.64,2.73,28.77-.59,34.78-10.03,6.91-10.85,6.81-29.67-.49-39.58-8.75-11.88-21.24-11.29-34.29-10.53v60.13Z"/><path class="cls-1" d="m771.62,40.44c10.54.52,20.83.07,30.74,1.75,13.52,2.3,22.35,11.01,26.17,24.17,3.19,11,2.93,22.08-.95,32.87-4.22,11.74-12.46,19.55-25.1,21.14-10.02,1.26-20.23,1.13-29.96,1.6-2.9-8.32-3.54-67.33-.9-81.54Zm9.35,10.75v60.44c13.42.84,26.03,1.82,34.63-10.37,6.83-9.69,7-29.16.45-38.73-8.57-12.52-21.22-12.71-35.08-11.34Z"/><path class="cls-1" d="m926.56,105.9h-40.08c2.29-8.14,4.32-15.52,6.46-22.88,2.92-10.04,6.09-20.01,8.82-30.1,1.29-4.78,3.5-7.19,10.09-5,4.67,18.38,9.53,37.54,14.72,57.98Zm-27.01-9.84h13.9c-1.75-8.24-3.3-15.54-4.85-22.83-.8-.03-1.59-.05-2.39-.08-2.09,7.19-4.18,14.38-6.66,22.91Z"/></g></svg>