<?xml version="1.0" encoding="UTF-8"?><svg id="Capa_2" xmlns="http://www.w3.org/2000/svg" viewBox="0 0 2563.76 589.53"><defs><style>.cls-1{fill:#323232;}.cls-1,.cls-2{stroke-width:0px;}.cls-2{fill:#017ac2;}</style></defs><g id="Capa_1-2"><path class="cls-2" d="m339.55,589.36c-41.87,0-83.74.03-125.61,0-99.65-.08-188.49-72.38-208.89-169.83-3.1-14.79-4.88-29.68-4.87-44.78.02-45.17-.55-90.35.3-135.5C2.31,140.7,75.82,53.87,172.69,34.74c14.81-2.92,29.73-4.49,44.85-4.45,41.36.08,82.72-.16,124.08.07,61.24.35,113.6,22.36,156.23,66.25,33.79,34.79,53.47,76.67,58.99,124.96.98,8.59,1.44,17.29,1.45,25.95.06,81.66.13,163.32-.2,244.98-.06,14.75-1.22,29.59-3.16,44.21-4.07,30.68-18.84,44.95-49.34,49.45-17.99,2.65-36.08,3.18-54.21,3.19-37.28,0-74.55,0-111.83,0Zm70.51-271.01c-.03-42.66-6.21-74.97-18.73-106.24-6.85-17.1-15.31-33.37-25.9-48.44-7.11-10.12-17.26-14.42-29.37-11.88-12.08,2.53-19.64,10.49-22.38,22.52-2.13,9.37,1.73,17.21,6.56,25.1,39.61,64.75,43.22,131.76,11.56,200.6-4.02,8.75-9.63,16.78-14.47,25.16-5.73,9.92-5.84,19.96.1,29.73,5.77,9.5,14.49,13.99,25.66,13.63,10.64-.34,18.1-5.77,23.8-14.39,28.94-43.77,42.98-91.97,43.18-135.8Zm-223.63,148.66c9.81-.31,18.66-6.19,24.06-17.27,10.83-22.22,21.61-44.47,32.4-66.72,2.45-5.04,5.19-9.98,7.2-15.19,6.13-15.93-2.82-33.59-19.17-38.33-13.69-3.97-27.7,2.31-34.46,15.93-9.85,19.86-19.41,39.87-29.07,59.83-3.55,7.34-7.46,14.54-10.5,22.09-7.71,19.15,6.38,39.69,29.54,39.67Zm35.96-279.57c-20.71-.5-37.55,15.18-38.19,35.56-.67,21.19,15.35,38.41,36.43,39.14,20.67.72,38.38-16.2,38.73-37.01.35-20.75-15.75-37.17-36.97-37.69Z"/><path class="cls-1" d="m1197.01,511.21c-.97,1.65-2.01,3.25-2.89,4.94-22.27,42.7-57.69,66.11-105.25,71.76-25.13,2.99-50.03,1.57-74.34-5.36-46.61-13.28-76.4-44.18-91.77-89.58-8.36-24.69-10.87-50.2-10.81-76.12.12-54.61.04-109.22.04-163.83,0-2.77,0-5.54,0-8.79h-142.34v8c0,59.97-.06,119.94.08,179.9.02,7.37.59,14.8,1.71,22.09,4.24,27.67,20.83,42.59,49.1,44.42,14.61.94,29.05-.38,43.31-3.75,1.21-.29,2.44-.49,4.57-.91,5.8,27.05,11.53,53.8,17.33,80.86-6.04,3.84-12.68,5.54-19.32,7.06-40.61,9.35-81.39,10.58-122.09,1-9.81-2.31-19.48-6.2-28.44-10.87-21.99-11.46-35.2-30.4-42.74-53.61-5.72-17.6-8.08-35.78-9.03-54.16-.5-9.68-.6-19.38-.61-29.07-.04-131.67-.02-263.35-.02-395.02v-9.51h105.98v122.66h248.62v9c0,70.94-.11,141.88.07,212.82.05,21.19,1.48,42.32,7.41,62.86,2.84,9.85,6.78,19.23,12.66,27.69,11.16,16.04,26.64,24.84,45.93,27.1,18.06,2.11,35.72.29,52.62-6.47,25.14-10.05,40.65-29.13,49.34-54.21,5.14-14.84,7.11-30.22,7.1-45.89-.01-74.26,0-148.52,0-222.77,0-3.01,0-6.02,0-9.55h106.09v424.09h-100.49v-66.26c-.6-.18-1.2-.35-1.79-.53Z"/><path class="cls-1" d="m2548.21,578.15h-105.49V245.18c-5.73-1.73-130.16-2.28-142.16-.7-.14,1.81-.43,3.75-.43,5.69-.02,61.24-.22,122.48.18,183.71.07,10.32,1.76,20.87,4.38,30.88,4.88,18.62,18.01,29.04,36.69,32.52,17.61,3.28,35.06,1.44,52.41-2.2,1.45-.3,2.91-.53,4.97-.9,5.75,26.94,11.42,53.53,17.28,80.97-2.43,1.09-4.83,2.35-7.36,3.26-14.01,5.03-28.59,7.51-43.31,9.1-21.63,2.34-43.3,2.49-64.95.13-14.25-1.55-28.22-4.37-41.61-9.58-26.29-10.22-44.11-28.76-53.63-55.25-8.48-23.6-10.96-48.18-10.99-73.01-.18-137.78-.19-275.56-.26-413.35,0-1.76,0-3.52,0-5.77h106.03c.34,40.44-.04,81.09.21,122.5h248.01v424.95Z"/><path class="cls-1" d="m1754.42,403.46h-322.92c3.21,25.84,12.19,48.14,29.8,66.41,24.4,25.3,54.91,34.98,89.41,34.1,42.22-1.08,75.88-19.41,103.15-50.78,1.81-2.08,3.66-4.13,5.85-6.59,25.4,19.24,50.53,38.27,76.06,57.61-3.4,4.01-6.26,7.57-9.32,10.96-38.66,42.65-86.45,67.32-143.93,72.83-50.52,4.84-98.9-2.7-143.71-27.05-61.25-33.27-98.24-84.7-110.1-153.42-8.36-48.44-3.56-95.71,17.88-140.37,28.15-58.62,74.9-95.75,136.66-114.16,41.33-12.32,83.48-14.47,125.55-4.19,60.99,14.9,102.1,53.13,126,110.53,10.37,24.9,16.57,50.95,18.37,77.81,1.38,20.59,1.26,41.28,1.77,61.93.03,1.21-.28,2.42-.53,4.39Zm-105.27-80.6c-.63-6.23-.91-11.58-1.75-16.84-5.84-36.38-24.96-62.3-59.96-75.6-17.72-6.73-36.14-8.41-54.89-7.42-65.59,3.44-95.72,52.88-100.56,99.86h217.16Z"/><path class="cls-1" d="m1781.26,153.81h100.25v66.77c.43.19.86.38,1.29.57.97-1.45,2.1-2.82,2.89-4.36,19.84-38.95,51.16-63.02,94.14-70.85,35.84-6.52,71.26-4.18,105.04,10.47,35.54,15.41,58.2,42.89,71.28,78.8,8.02,22.02,11.92,44.9,11.98,68.22.25,90.32.1,180.64.1,270.96,0,1-.11,2-.17,2.95-5.51,1.47-95.77,1.85-105.86.38,0-2.63,0-5.37,0-8.11,0-70.16.12-140.33-.07-210.49-.06-21.43-1.05-42.86-7.12-63.64-1.64-5.61-3.6-11.16-5.97-16.5-10.64-24.01-29.18-37.52-55.27-40.07-16.95-1.66-33.65.26-49.62,6.57-27.24,10.76-43.06,31.62-51.41,58.87-4.75,15.51-6,31.51-6,47.63-.02,72.46,0,144.92,0,217.38,0,2.77,0,5.53,0,8.73h-105.47V153.81Z"/><path class="cls-1" d="m2563.76,55.85c-.06,39.73-23.39,65.9-55.49,70.86-22.16,3.42-42.36-.9-59.18-16.06-17.84-16.08-25.35-36.46-19.8-60.1,5.78-24.65,21.9-40.73,46.13-47.51,23.17-6.49,45.17-2.63,64.48,12.16,15.99,12.25,23.72,28.91,23.87,40.65Z"/></g></svg>