<?xml version="1.0" encoding="UTF-8"?><svg id="Capa_2" xmlns="http://www.w3.org/2000/svg" viewBox="0 0 1115.38 719.31"><defs><style>.cls-1{fill:#2a3a7c;}.cls-1,.cls-2,.cls-3,.cls-4,.cls-5,.cls-6{stroke-width:0px;}.cls-2{fill:#2a397c;}.cls-3{fill:#818bb2;}.cls-4{fill:#29397c;}.cls-5{fill:#f40101;}.cls-6{fill:#2a3a7d;}</style></defs><g id="Capa_1-2"><path class="cls-1" d="m1115.38,237.89c-.39,2.35-.8,4.69-1.17,7.04-7.07,44.81-39.47,84.55-88.75,98.02-29.98,8.19-59.55,6.52-87.6-7.35-37.8-18.7-61.1-49.04-68.46-90.7-11-62.2,27.48-122.98,88.44-140.01,70.61-19.73,140.32,23.59,155.35,93.44.77,3.56,1.04,7.23,1.59,10.85.07.48.4.92.61,1.38v27.32Zm-123.59-75.52c-2.44.14-4.89.12-7.3.46-16.35,2.27-29.79,9.9-40.18,22.62-12.1,14.82-17.1,31.83-13.18,50.71,7.71,37.15,47.47,58.57,82.88,45.01,26.61-10.19,43.08-37.06,39.53-64.48-3.91-30.22-31.22-54.2-61.74-54.32Z"/><path class="cls-6" d="m512.89,0c1.57.38,3.13.79,4.7,1.15,15.88,3.59,26.36,17.79,24.96,35.25-1.07,13.32-7.57,23.33-19.96,28.83-20.85,9.26-44.66-4.82-47.18-27.55-2.08-18.72,10.65-34.54,28.15-37.01,2.44-.22,4.88-.44,7.32-.67.67,0,1.33,0,2,0Z"/><path class="cls-3" d="m510.89,0c-2.44.22-4.88.44-7.32.67,0-.22,0-.44,0-.67,2.44,0,4.89,0,7.33,0Z"/><path class="cls-5" d="m531.04,719.31c-13.72-1.14-27.89-2.22-42.03-3.52-16.03-1.47-31.93-3.87-47.78-6.68-30.06-5.34-59.57-12.79-88.49-22.56-64.12-21.67-123.08-52.97-176.38-94.77-21.62-16.96-41.79-35.52-60.6-55.54-1.89-2.01-3.7-4.17-5.16-6.5-2.97-4.74-2.34-8.7,1.91-12.43,1.9-1.67,3.98-3.26,6.22-4.42,8.27-4.25,16.64-8.32,24.99-12.42,2.09-1.02,4.23-1.94,6.37-2.86,5.01-2.14,9.76-1.61,14.16,1.58,1.52,1.1,2.97,2.34,4.28,3.69,39.47,40.34,84.59,72.97,134.68,98.87,46.24,23.91,94.88,41.1,145.8,51.8,20.31,4.27,40.8,7.41,61.44,9.62,25.88,2.78,51.82,3.78,77.82,3.04,18.09-.52,36.12-2.06,54.08-4.39,43.02-5.6,85.05-15.26,125.89-29.99,69.92-25.23,131.38-63.9,184.62-115.76,33.4-32.54,61.55-69.04,84.11-109.86,1.44-2.6,3.19-5.08,5.1-7.36,2.24-2.69,5.21-3.57,8.7-2.55,4.63,1.35,8.91,3.41,12.76,6.26,3.49,2.59,4.35,5.57,2.92,9.69-.54,1.56-1.24,3.1-2.1,4.52-13.88,22.98-27.15,46.35-42.56,68.37-27.83,39.76-60.96,74.59-99.06,104.59-64.8,51.02-137.13,87.07-216.92,108.08-21.04,5.54-42.32,9.92-63.91,12.57-16.85,2.07-33.75,3.73-50.64,5.37-13.04,1.27-26.09,2.4-39.16,3.27-6.84.46-13.73.21-21.06.29Z"/><path class="cls-2" d="m166.94,336.44c-1.1.46-2.01.8-2.88,1.21-14.1,6.54-28.98,9.67-44.46,10.17-15.69.51-31.05-1.22-45.74-7.03-30.94-12.24-52.34-33.98-64.01-65.12C3.29,258.17-.5,240.03.05,221.28c1.11-37.76,14.88-70.04,43.36-95.31,17.2-15.27,37.68-23.44,60.62-25.49,19.67-1.76,38.43,1.86,56.64,9.1,1.64.65,3.3,1.28,5.06,1.96.52-.47,1.04-.86,1.46-1.34,5.12-5.79,11.7-8.8,19.24-9.48,10.98-.99,21.96-.47,32.91.66,1.31.14,2.61.51,3.89.86,4.92,1.36,8.15,4.45,9.19,9.5.58,2.81,1.09,5.69,1.17,8.55.2,6.66.15,13.32.15,19.98,0,74.17,0,148.35,0,222.52,0,14.4-1.64,28.56-6.11,42.31-6.36,19.55-18.1,35.18-34.57,47.33-5.67,4.18-11.92,6.33-19.07,4.71-4.83-1.09-9.02-3.48-12.09-7.23-5.84-7.11-11.38-14.48-16.91-21.84-1.03-1.37-1.59-3.16-2.13-4.83-1.06-3.26-.14-6.19,2.13-8.6,1.2-1.27,2.66-2.36,4.16-3.28,10.15-6.28,15.95-15.54,17.07-27.19.99-10.24.81-20.6,1.02-30.92.1-4.77-.08-9.55-.14-14.32-.01-.75-.09-1.49-.16-2.52Zm1.33-112.14c0-16.88-.06-33.76.03-50.64.03-5.54-2.23-9.6-6.9-12.41-1.04-.63-2.09-1.26-3.18-1.81-15.46-7.75-31.49-8.43-47.48-2.51-25.19,9.33-40.64,27.42-45.8,53.9-2.6,13.33-1.94,26.54,3.13,39.28,6.43,16.16,18,27.8,32.81,36.41,10.34,6.01,21.55,8.71,33.52,7.94,8.73-.56,16.98-3,25-6.45,6.14-2.64,8.98-7.03,8.92-13.75-.14-16.66-.05-33.31-.05-49.97Z"/><path class="cls-1" d="m757.5,112.26c.19-8.75.49-16.84.52-24.94.05-18.54-.03-37.09-.05-55.63,0-2.66-.13-5.34.13-7.97.65-6.71,4.37-10.62,11.06-11.17,12.19-1,24.4-.99,36.61-.2,2.43.16,4.87.45,7.26.92,6.35,1.25,8.94,3.92,9.93,10.35.37,2.4.5,4.86.5,7.29.02,98.16.02,196.33,0,294.49,0,2.43-.16,4.89-.52,7.29-.99,6.56-3.89,9.3-10.53,9.82-4.42.34-8.87.48-13.31.48-8.21,0-16.43-.16-24.64-.23-5.22-.04-10.12-1.45-14.72-3.72-2.43-1.2-4.42-1.04-6.87-.08-14.9,5.87-30.39,9.51-46.4,9.24-41.95-.72-75.53-17.28-97.34-54.11-14.31-24.15-21.08-50.5-19.43-78.66,1.46-24.82,9.67-47.48,23.49-68.08,7.69-11.46,17.31-21.08,28.76-28.84,15.29-10.35,32.14-16.31,50.53-18.03,18.71-1.76,36.71,1.21,54.19,7.83,3.4,1.29,6.83,2.49,10.86,3.95Zm.65,112.3s-.03,0-.05,0c0-9.66.06-19.32-.02-28.98-.06-7.44-.15-14.88-.5-22.3-.21-4.43-1.48-8.67-5.59-11.14-13.49-8.09-27.84-11.09-43.44-7.56-41.91,9.47-66.37,53.78-51.14,93.96,10.28,27.13,30.5,42.47,59.39,45.72,11.73,1.32,22.96-1.3,33.43-6.87,5.42-2.89,7.98-7.34,7.95-13.53-.09-16.43-.03-32.86-.03-49.29Z"/><path class="cls-4" d="m354.75,111.5c2.28-1.28,4.28-2.46,6.33-3.54,16.92-8.93,34.55-9.8,52.62-4.31,4.55,1.38,8.95,3.26,13.37,5.04,1.74.7,3.37,1.69,4.97,2.68,4.47,2.77,6.32,6.85,5.18,11.94-.99,4.42-2.22,8.83-3.78,13.08-2.18,5.93-4.74,11.72-7.21,17.54-.56,1.32-1.28,2.59-2.11,3.77-2.71,3.88-6.5,5.63-11.2,5.14-1.97-.2-3.94-.65-5.85-1.2-7.52-2.16-15.16-3.41-23-3.01-6.93.35-13.64,1.75-19.96,4.68-6.69,3.1-10.58,8.26-11.29,15.66-.22,2.32-.42,4.65-.42,6.97-.03,42.2-.01,84.4-.02,126.6,0,5.44,0,10.88-.14,16.32-.05,2.09-.32,4.22-.78,6.26-.79,3.54-2.94,6.08-6.59,6.69-3.7.62-7.48,1.04-11.23,1.1-9.88.15-19.77.08-29.65.03-2.33-.01-4.66-.17-6.98-.44-5.79-.67-8.73-3.69-9.31-9.48-.14-1.43-.12-2.88-.12-4.33-.02-58.52-.04-117.05-.06-175.57,0-11.66-.06-23.32-.08-34.98,0-1.33,0-2.67.1-3.99.39-5.55,3.05-9.24,8.36-10.77,4.14-1.19,8.41-2.06,12.68-2.66,10.45-1.45,20.79-.62,31.09,1.66,4.04.9,7.51,2.56,10.53,5.32,1.39,1.27,2.89,2.41,4.55,3.77Z"/><path class="cls-6" d="m541.66,223.75c0,35.19.01,70.39-.03,105.58,0,2.42-.26,4.88-.76,7.24-.57,2.68-2.4,4.58-5.06,5.24-2.46.61-5.01,1.09-7.53,1.12-12.32.11-24.65.07-36.97.03-1.99,0-3.99-.2-5.97-.46-5.21-.68-7.85-3.4-8.43-8.7-.22-1.98-.33-3.99-.33-5.98-.06-55.18-.1-110.35-.12-165.53,0-14.65.03-29.31.15-43.96.02-2.64.42-5.3.92-7.91.71-3.7,3.03-6.27,6.65-7.14,3.75-.9,7.63-1.81,11.45-1.81,9.54,0,19.07.48,28.61.8,1.88.06,3.76.26,5.65.4,7.36.54,11.35,4.53,11.81,11.84.09,1.33.07,2.66.07,3.99,0,35.08,0,70.17,0,105.25-.03,0-.06,0-.08,0Z"/><path class="cls-5" d="m123.02,471.97c-18.84-1.85-36.3-6.06-52.37-15.02-11.68-6.52-21.68-15.05-29.99-25.52-1.7-2.15-3.11-4.59-4.31-7.06-1.4-2.89-.74-5.74,1.49-7.97,1.63-1.63,3.5-3.11,5.48-4.28,10.64-6.25,21.95-11.08,33.43-15.51,5.07-1.96,9.61-.75,13.38,3.14,1.15,1.19,2.21,2.5,3.13,3.87,12.35,18.44,24.68,36.89,36.94,55.39,1.27,1.91,2.05,4.15,3,6.25.84,1.86.06,3.23-1.51,4.24-2.85,1.84-5.79,3.34-8.68,2.45Z"/></g></svg>