<?xml version="1.0" encoding="UTF-8"?><svg id="Capa_2" xmlns="http://www.w3.org/2000/svg" viewBox="0 0 528 104"><defs><style>.cls-1{fill:#0366ac;}.cls-1,.cls-2,.cls-3,.cls-4{stroke-width:0px;}.cls-2{fill:#f7da33;}.cls-3{fill:#0868ab;}.cls-4{fill:#fcdb30;}</style></defs><g id="Capa_1-2"><path class="cls-4" d="m520.29.07C397.54.03,274.8.03,152.05.03c-1.17,0-2.34-.07-3.5.02-2.78.24-4.13,1.58-4.41,4.41-.11,1.15-.03,2.33-.03,3.49v52.97c0,12.32.01,24.65-.01,36.97,0,2.19-.14,4.4,2.55,6.07h148.37c1.32,0,2.65-.11,3.98-.17,0-14.15-.03-28.29.02-42.44.03-9.93,3.89-17.85,12.92-22.49,9.15-4.69,18.32-4.27,27.01,1.36,8.4,5.45,12.24,15.3,10.06,25.18-2.12,9.65-10.09,17.12-19.82,18.63-6.44,1.01-12.56.11-19.03-3.39-.13,8.1-.06,15.63-.05,23.15,14.42,0,28.83.02,43.25.03,0-13.97-.01-27.94.01-41.92.02-7.42,1.99-14.07,7.59-19.34,12.5-11.76,34.04-7.77,40.93,7.61,6.5,14.51-2.47,31.22-18.17,33.84-6.43,1.08-10.5.48-18.67-2.83-1.16,3.72-.37,7.49-.51,11.18-.15,3.82-.03,7.65-.03,11.47,1.16.05,2.32.13,3.48.13h154.29c1.91,0,3.81.03,5.72.04V1c-2.57-.32-5.14-.93-7.71-.93ZM201.15,67.91c9.18,8.75,21.52,8.18,33.06-1.88,2.37,2.09,4.81,4.24,7.2,6.35-4.09,7.8-19.61,14.61-33.08,11.19-16.51-4.19-24.86-18.52-25.6-29.71-1.14-16.95,9.75-28.91,21.16-33.42,15.25-6.03,30.91.67,37.6,9.58-2.61,2.27-4.95,4.31-7.6,6.61-5.69-6.02-12.43-8.63-20.41-7.61-5.71.73-10.38,3.46-14.07,7.81-7.9,9.31-7.13,22.62,1.74,31.08Zm87.27,8.89c-7.92,8.77-23.12,10.18-33.47,3.32-9.51-6.3-13.4-19.42-8.16-30.5,4-8.46,12.74-13.84,25.2-13.77,8.58.41,16.92,4.81,21.1,15,3.87,9.44,2.21,18.34-4.67,25.95Zm164.31-14.13h-35.08c-.13,5.57,2.61,8.48,6.58,10.43,5.52,2.7,12.57,1.47,19.58-3.47,1.79,2.19,3.65,4.45,5.73,6.98-.6.62-1.48,1.87-2.65,2.68-8.44,5.79-17.55,7.07-26.93,2.86-9.17-4.11-13.5-12.04-13.46-21.62.09-19.92,18.16-29.17,33.51-22.77,9.63,4.02,14.67,13.86,12.72,24.91Zm29.13,21.24c-10.48,1.01-21.04-6.75-23.78-17.62-.49-1.92-.81-3.93-.82-5.91-.07-12.99-.04-25.98-.03-38.97,0-.63.15-1.27.26-2.12h11v5.52c0,11.33.22,22.65-.01,33.98-.17,8.57,1.74,11.25,4.03,13.41,2.97,2.8,5.68,2.5,9.35,3.05v8.66Z"/><path class="cls-1" d="m0,1C3.57.67,7.13.07,10.7.06,50.36,0,90.03.02,129.69.02c1.17,0,2.34-.05,3.5.01,3.25.18,4.5,1.38,4.73,4.5.06.83.01,1.67.01,2.5,0,30,0,60,0,89.99,0,2.46.53,5.13-2.86,6.94-1.2,0-3.03,0-4.85,0-40.83,0-81.66.02-122.49-.04-2.58,0-5.15-.61-7.73-.93V1Zm117.46,62.16c2.18-.33,3.76-.57,5.34-.8v-10.48H54.27c.29-8.98-2.64-13.74-9.22-15.41-5.78-1.47-10.79,1.43-14.63,8.44-10.57.7-15.43,4.58-15.43,12.3,0,3.13.99,5.83,3.08,8.2,3.35,3.79,7.76,4.06,12.13,3.59,3.98,7.61,8.92,10.39,15.25,8.84,5.98-1.46,8.94-6.31,8.98-14.81h46.55v13.64h5.5c.2-2.45.36-4.54.55-6.9,1.78.13,3.18.23,4.67.34.16,2.45.3,4.55.43,6.66h5.32v-13.61Z"/><path class="cls-3" d="m353.36,103.82c0-13.97,0-27.95.02-41.92.01-7.42,1.98-14.07,7.59-19.35,12.5-11.76,34.04-7.77,40.93,7.61,6.5,14.51-2.47,31.23-18.17,33.84-6.44,1.07-10.5.47-18.67-2.83-1.16,3.71-.37,7.49-.51,11.18-.15,3.82-.03,7.65-.03,11.48-3.72,0-7.43,0-11.15-.01Zm39.86-43.79c.01-8.04-6.16-14.02-14.41-13.91-7.47.1-14.19,4.61-14.3,14.12-.11,8.94,6.54,14.12,14.15,14.22,8.89.12,14.75-7.22,14.57-14.43Z"/><path class="cls-3" d="m299,103.79c0-14.15-.02-28.29.02-42.44.03-9.93,3.89-17.85,12.92-22.49,9.15-4.69,18.32-4.27,27.01,1.36,8.41,5.45,12.24,15.29,10.07,25.18-2.13,9.65-10.1,17.12-19.83,18.64-6.43,1-12.55.1-19.03-3.4-.13,8.1-.06,15.63-.04,23.15-3.7,0-7.41,0-11.11,0Zm25-29.42c8.59.53,14.81-6.17,14.77-14.05-.05-9.55-7.11-14.14-14.14-14.21-8.42-.09-14.61,5.87-14.65,14.17-.04,8.3,5.64,14.01,14.02,14.09Z"/><path class="cls-3" d="m241.49,30.02c-2.61,2.27-4.96,4.31-7.6,6.61-5.69-6.02-12.43-8.64-20.41-7.61-5.71.73-10.38,3.46-14.08,7.81-7.9,9.31-7.13,22.62,1.74,31.08,9.18,8.75,21.52,8.18,33.07-1.88,2.37,2.09,4.8,4.24,7.19,6.35-4.09,7.8-19.61,14.61-33.08,11.19-16.51-4.19-24.86-18.52-25.6-29.71-1.13-16.95,9.75-28.91,21.16-33.42,15.25-6.03,30.91.68,37.6,9.58Z"/><path class="cls-3" d="m417.66,62.66c-.13,5.57,2.6,8.49,6.57,10.43,5.53,2.7,12.57,1.47,19.58-3.46,1.8,2.19,3.65,4.45,5.73,6.98-.6.62-1.47,1.87-2.65,2.67-8.44,5.79-17.55,7.08-26.93,2.87-9.17-4.11-13.5-12.04-13.45-21.62.09-19.92,18.15-29.17,33.51-22.77,9.63,4.02,14.67,13.85,12.72,24.9h-35.08Zm.14-7.67h24.06c-.8-5.72-4.55-9.19-10.32-9.78-5.99-.62-11.78,3.31-13.75,9.78Z"/><path class="cls-3" d="m272,35.84c8.57.42,16.92,4.82,21.1,15.01,3.87,9.44,2.21,18.33-4.67,25.95-7.92,8.77-23.13,10.18-33.47,3.33-9.51-6.3-13.4-19.43-8.16-30.51,4-8.45,12.74-13.83,25.2-13.77Zm-2.21,38.52c8.56,0,14.23-5.79,14.51-14.21.24-7.16-5.9-14.16-14.21-14.08-8.45.09-14.51,5.99-14.5,14.34.01,8.37,6.61,14.46,14.2,13.95Z"/><path class="cls-3" d="m457.5,19.28h11c0,13.22.03,26.3-.01,39.5-.49,8.2,4.74,15.38,13.38,16.46,0,2.44,0,5.54,0,8.66-12.57,1.38-24.75-10.42-24.6-23.52.14-13.71-.48-27.42.24-41.1Z"/><path class="cls-2" d="m117.46,63.16v13.61h-5.32c-.14-2.11-.27-4.2-.43-6.66-1.48-.11-2.88-.21-4.67-.34-.19,2.36-.35,4.45-.55,6.9h-5.5v-13.64h-46.55c-.05,8.5-3.01,13.35-8.98,14.81-6.32,1.55-11.27-1.24-15.25-8.84-4.37.47-8.78.2-12.13-3.59-2.09-2.37-3.08-5.07-3.08-8.2,0-7.71,4.87-11.59,15.43-12.3,3.84-7.02,8.85-9.91,14.63-8.44,6.57,1.67,9.5,6.42,9.22,15.41h68.52v10.48c-1.58.24-3.16.48-5.34.8Zm-69.47-14.69c-2.02-4.66-3.82-6.03-6.83-5.36-2.35.53-4.05,2.6-4.11,4.99-.06,2.57,1.71,4.78,4.3,5.38,2.71.63,4.46-.65,6.63-5.02Zm-26.15,8.97c.11,2.87,2.81,5.42,5.5,5.19,2.82-.24,4.96-2.88,4.77-5.88-.18-2.83-2.35-4.83-5.22-4.82-2.93.02-5.16,2.45-5.05,5.5Zm20.48,3.31c-2.98.04-5.37,2.49-5.25,5.38.11,2.63,2.48,4.91,5.18,4.97,2.75.07,5.62-2.54,5.64-5.14.03-2.57-2.84-5.25-5.57-5.22Z"/><path class="cls-4" d="m393.22,60.03c.19,7.21-5.68,14.55-14.57,14.43-7.61-.1-14.25-5.28-14.15-14.22.11-9.51,6.83-14.03,14.3-14.12,8.25-.11,14.43,5.87,14.41,13.91Z"/><path class="cls-4" d="m324,74.37c-8.38-.09-14.05-5.79-14.02-14.09.04-8.3,6.23-14.26,14.65-14.17,7.03.07,14.09,4.66,14.14,14.21.04,7.89-6.18,14.58-14.77,14.05Z"/><path class="cls-2" d="m417.79,55c1.97-6.47,7.75-10.4,13.75-9.78,5.77.59,9.52,4.06,10.32,9.78h-24.06Z"/><path class="cls-4" d="m269.79,74.37c-7.59.51-14.19-5.58-14.2-13.95-.01-8.35,6.06-14.25,14.5-14.34,8.31-.09,14.45,6.92,14.21,14.08-.28,8.42-5.95,14.22-14.51,14.21Z"/><path class="cls-3" d="m47.99,48.46c-2.17,4.37-3.92,5.65-6.63,5.02-2.6-.61-4.36-2.81-4.3-5.38.05-2.39,1.76-4.47,4.11-4.99,3-.68,4.81.7,6.83,5.36Z"/><path class="cls-3" d="m21.84,57.43c-.11-3.05,2.12-5.49,5.05-5.5,2.87-.02,5.04,1.99,5.22,4.82.19,3-1.95,5.64-4.77,5.88-2.69.23-5.39-2.32-5.5-5.19Z"/><path class="cls-3" d="m42.32,60.75c2.73-.03,5.6,2.65,5.57,5.22-.03,2.6-2.9,5.21-5.64,5.14-2.69-.07-5.06-2.35-5.18-4.97-.12-2.89,2.27-5.35,5.25-5.38Z"/><path class="cls-3" d="m490.79,83.99c-1.99.03-3.62-1.55-3.67-3.54-.05-2.03,1.56-3.67,3.54-3.71,2.02-.05,3.69,1.56,3.71,3.59.02,2.01-1.6,3.63-3.58,3.66Zm-.04-.74c1.59,0,2.89-1.29,2.89-2.89,0-1.6-1.29-2.89-2.89-2.89-1.59,0-2.89,1.29-2.89,2.89,0,1.6,1.3,2.89,2.89,2.89Z"/><path class="cls-3" d="m490.13,80.75v1.43s-.92.01-.98,0v-3.79s.02,0,.03,0c.51,0,1.02,0,1.53,0,.2,0,.4.02.6.07.13.03.25.08.37.14.19.11.31.28.37.49.06.21.06.43.01.64-.06.26-.22.45-.45.58-.07.04-.15.07-.23.1,0,0,0,0,.01,0,.17.05.29.15.4.28.09.12.17.24.23.38.18.36.35.71.53,1.07,0,.01.01.02.02.04-.02,0-.03,0-.04,0-.32,0-.64,0-.97,0-.02,0-.04,0-.05-.03-.15-.3-.3-.6-.44-.9-.04-.09-.09-.18-.15-.26-.12-.16-.27-.24-.47-.24-.1,0-.2,0-.3,0,0,0-.01,0-.03,0Zm0-.68s.01,0,.01,0c.16,0,.31,0,.47,0,.09,0,.17-.02.26-.05.11-.04.19-.12.22-.24.04-.13.04-.26,0-.4-.03-.12-.11-.21-.24-.25-.07-.02-.13-.04-.2-.04-.17,0-.33,0-.5,0,0,0-.01,0-.02,0v.97Z"/></g></svg>