<?xml version="1.0" encoding="UTF-8"?><svg id="Capa_2" xmlns="http://www.w3.org/2000/svg" viewBox="0 0 862.43 177.56"><defs><style>.cls-1{fill:#fff;}.cls-2{fill:#63c552;}.cls-3{fill:#ff5800;}</style></defs><g id="Capa_1-2"><path class="cls-3" d="m468.45,61.99c4-4.18,7.86-8,13.55-9.68,9.26-2.73,17.62-.97,25.17,4.42,4.17,2.98,6.05,7.99,6.1,12.92.25,23.83.11,47.66.11,71.87h-24.31c-.07-1.42-.21-3.01-.21-4.6-.02-17.5.07-35-.08-52.5-.03-3.59-.5-7.31-1.53-10.73-2.31-7.67-9.06-9.19-14.91-3.64-.36.34-.69.72-1.52,1.6-.21,4.92-.61,10.39-.64,15.86-.09,16.33-.03,32.67-.03,49,0,1.63,0,3.26,0,5.14h-24.07c-.08-1.58-.22-3.18-.22-4.77-.02-17.83.09-35.67-.09-53.5-.04-3.55-.87-7.16-1.81-10.61-1.13-4.18-4.33-6.14-8.72-5.96-3.99.16-6.53,2.11-7.5,6.32-.56,2.4-.7,4.94-.71,7.42-.05,18.67-.03,37.33-.03,56v5.12h-24.79V53.27h24.5v7.79c5.87-7.28,13.02-10.16,21.43-9.98,8.49.18,14.99,4.33,20.28,10.92Z"/><path class="cls-3" d="m301.86,84.9q.46-11.66-2.43-17.06c-11.71-5.1-15.86-2.5-16.54,10.71h-24.01c-.7-6.6-.17-13.08,4.49-18.22,3.51-3.87,8.24-6.33,13.38-7.58,8.65-2.1,17.33-2.48,26.11-.5,5.07,1.14,9.94,2.38,14.47,5.2,3.49,2.17,5.29,5.3,6.6,8.73,2.12,5.54,3.03,11.38,2.97,17.37-.09,9.66-.07,19.32-.01,28.97.06,9.61.24,19.21.37,29.1h-22.6c-.33-3.06-.69-6.28-1.09-9.97-.91.62-1.88.95-2.31,1.62-3.94,6.12-9.74,9.34-16.73,10.27-6.22.83-12.5.72-18.08-2.77-6.39-4-8.95-10.53-9.93-17.47-.74-5.27-1.09-10.9-.05-16.05,2.35-11.66,7.05-17.48,19.43-20.17,6.6-1.44,13.5-1.53,20.27-2.15,1.78-.16,3.58-.02,5.69-.02Zm.11,13.93c-4.41.41-8.2.59-11.93,1.16-3.66.56-6.64,2.5-7.86,6.12-1.85,5.49-1.87,11.1-.12,16.65.79,2.51,2.46,4.34,5.07,5.07,5.61,1.57,10.87-1.66,12.98-7.11,2.67-6.92,1.93-13.96,1.86-21.89Z"/><path class="cls-3" d="m599.7,141.68h-22.83c-.39-3.45-.75-6.73-1.18-10.57-1.03,1.01-2.07,1.7-2.67,2.67-6.88,11.02-24.46,12.67-33.79,6.99-5.91-3.59-9.75-9.08-10.1-16.32-.26-5.3-.55-10.64-.17-15.92.95-13.44,8.29-19.08,18.88-21.49,4.15-.95,8.42-1.59,12.66-1.91,4.29-.32,8.62-.07,13.63-.07-.36-5.49,1.29-10.7-1.9-15.59-1.96-3.02-5.95-4.83-9.7-4.17-3.93.69-6.34,3.12-6.99,7.19-.31,1.94-.41,3.92-.64,6.15h-23.73c-2.27-14.66,5.61-22.25,18.2-25.85,12.13-3.46,24.12-1.95,35.87,2.17,6.27,2.2,9.93,7.05,11.59,13.03,1.35,4.84,1.86,10.03,1.95,15.08.28,15.81.15,31.63.26,47.45.03,3.64.41,7.28.64,11.16Zm-24.98-42.93c-5.07.49-8.86.65-12.58,1.27-3.62.6-6.58,2.57-7.83,6.17-1.91,5.48-1.94,11.1-.06,16.6,1.19,3.5,3.8,5.22,7.59,5.28,5.71.09,9.8-2.47,11-8.69,1.24-6.43,1.25-13.09,1.89-20.63Z"/><path class="cls-3" d="m828.26,175.54h-26.18c.7-3.44,1.13-6.67,2.05-9.75,2.07-6.97,4.5-13.83,6.5-20.81.5-1.74.22-3.88-.26-5.69-2.64-10.14-5.43-20.24-8.22-30.34-2.48-8.99-5.05-17.95-7.51-26.94-1.59-5.82-3.07-11.67-4.6-17.51-.95-3.62-1.91-7.23-2.96-11.22h25.1c4.18,20.05,8.4,40.31,12.62,60.58.24-.02.48-.03.73-.05,4.27-20.15,8.55-40.29,12.87-60.67h24.04c-11.41,40.88-22.74,81.44-34.18,122.41Z"/><path class="cls-3" d="m661.8,84.65c-1.11-4.09-1.76-7.99-3.25-11.54-1.97-4.7-6.08-6.39-11.42-5.35-4.27.83-7.18,3.17-7.71,9.31-1.22,14.11-1.27,28.24.58,42.32.54,4.09,3.61,7.68,7.28,8.3,5.23.88,8.92-.72,10.85-5.43,1.65-4.01,2.66-8.29,4.09-12.92h23.87c.27,10.69-2.8,20.01-10.42,27.18-4.1,3.85-9.52,5.78-15.41,6.5-7.16.88-14.2.83-21.33-.04-9.47-1.15-16.14-6.11-20.8-14.24-4.75-8.29-4.55-17.57-4.77-26.54-.23-9.22.61-18.53,1.78-27.7,1.28-10.06,7.46-16.93,16.79-20.47,9.64-3.66,19.51-3.77,29.7-1.49,6.52,1.46,11.84,4.23,16.4,8.84,1.12,1.13,2.25,2.34,3.03,3.71,3.42,5.97,4.74,12.46,4.8,19.55h-24.05Z"/><path class="cls-3" d="m236.03,141.72h-25.06v-73.22h-14.6v-15.42h14.23c.1-1.75.2-3.18.27-4.6.35-6.63.71-13.25,1.03-19.88.34-7.07,5.36-10.55,10.96-12.47,9.02-3.09,18.52-2.54,28.23-1.83v15.69c-5.41,0-11.28-.23-15.03,5.87v16.77h14.6v15.53h-14.63v73.55Z"/><path class="cls-3" d="m769.09,27.99v24.7h12.77v15.53h-11.89c-1.61,6.69-.96,52.23.96,57.54,3.01.44,6.37.93,10.1,1.48v14.64c-10.44,1.68-21.09,2.91-30.63-3.55-3.53-2.39-5.86-6.59-6.12-11.2-.29-5.31-.25-10.65-.26-15.98-.03-12.49,0-24.98,0-37.47,0-1.63,0-3.26,0-5.22h-9.63v-15.44h9.49v-14.06c8.23-3.58,16.27-7.06,25.2-10.95Z"/><path class="cls-3" d="m368.17,141.71h-24.73V53.16h23.56v10.72c5.53-9.6,13.57-12.64,23.5-12.77v22.52c-2.46.11-4.98-.12-7.34.41-3.32.74-6.63,1.79-9.71,3.2-2.7,1.23-3.82,4.05-4.35,6.81-.55,2.92-.87,5.93-.89,8.9-.09,14.48-.04,28.97-.04,43.46,0,1.64,0,3.28,0,5.31Z"/><path class="cls-3" d="m722.53,141.69h-24.42V53.28h24.42v88.41Z"/><path class="cls-3" d="m722.62,15.04v19.33h-24.4V15.04h24.4Z"/><path class="cls-2" d="m.05,0v97.35c-.02.72-.05,1.43-.05,2.15s.03,1.43.05,2.15v.26h0c1.28,42,35.7,75.65,78,75.65s76.73-33.66,78-75.65h.06V0H.05Z"/><polygon class="cls-1" points="135.92 69.03 87.52 69.03 87.52 20.63 65.94 20.63 65.94 69.03 17.54 69.03 17.54 90.6 65.94 90.6 65.94 139 87.52 139 87.52 90.6 135.92 90.6 135.92 69.03"/></g></svg>