<svg xmlns="http://www.w3.org/2000/svg" width="350.717" height="96.885" viewBox="0 0 350.717 96.885"><defs><style>.a{fill:#1048b2;}</style></defs><g transform="translate(-241.472 -206.431)"><path class="a" d="M241.472,206.431h22.951v76.429h38.135v19.332H241.472Z" transform="translate(0 0)"/><path class="a" d="M305.422,261.256v-6.769h-2.589c-15.274,0-20.176,1.958-20.176,10.417,0,6.5,2.451,9.238,9.545,9.238,8.039,0,13.22-2.737,13.22-12.886m-42.4,5.858c0-20.7,12-25.346,39.67-25.346h2.728c-.412-6.117-2.589-11.142-10.225-11.142a46.154,46.154,0,0,0-19.632,3.91l-8.318-15.888c6.818-3.38,16.36-5.855,30.269-5.855,21.268,0,27.808,9.326,27.808,27.547v26.251c0,4.562,1.928,5.732,6.839,5.732v17.048c-2.186.262-5.753.262-7.654.262-9.816,0-13.5-.911-15.816-6.117-4.09,4.682-10.225,6.769-21.265,6.769-20.182,0-24.4-9.894-24.4-23.171" transform="translate(43.265 12.771)"/><path class="a" d="M362.109,251.937c0-12.88-1.365-20.3-13.224-20.3s-13.226,7.422-13.226,20.3c0,12.757,1.362,20.444,13.226,20.444s13.224-7.687,13.224-20.444M314.8,251.29c0-23.042,6.679-38.006,34.085-38.006,27.535,0,33.935,15.226,33.935,38.006,0,23.689-6.4,38.268-33.935,38.268-27.132,0-34.085-14.967-34.085-38.268" transform="translate(147.196 13.757)"/><path class="a" d="M338.825,274.5l30.815-43.6H340.734V213.716h54.8V227l-31.081,44.52h32.312v16H338.825Z" transform="translate(195.419 14.624)"/><path class="a" d="M341.373,275.121a.372.372,0,0,1,.109.274.469.469,0,0,1-.46.472l-.166-.018c-.21.018-.43.021-.64.021a10.608,10.608,0,0,1-9.314-5.53l-.094-.12c-2.818-4.333-19.189-63.788-19.189-63.788H288.853L318.9,302.822h25.415L374.5,206.431H351.736l-13.864,47.54-.343,1.194c-2.286,7.566-.986,15.115,3.843,19.957" transform="translate(95.11 0)"/></g></svg>